<svg width="40" height="40" viewBox="0 0 40 40" fill="none" xmlns="http://www.w3.org/2000/svg">
<path d="M31.25 32.5C31.9403 32.5 32.5 31.9403 32.5 31.25C32.5 30.5597 31.9403 30 31.25 30C30.5597 30 30 30.5597 30 31.25C30 31.9403 30.5597 32.5 31.25 32.5Z" fill="#599C12"/>
<path d="M35 32.5C35.6903 32.5 36.25 31.9403 36.25 31.25C36.25 30.5597 35.6903 30 35 30C34.3097 30 33.75 30.5597 33.75 31.25C33.75 31.9403 34.3097 32.5 35 32.5Z" fill="#599C12"/>
<path d="M27.5 32.5C28.1903 32.5 28.75 31.9403 28.75 31.25C28.75 30.5597 28.1903 30 27.5 30C26.8097 30 26.25 30.5597 26.25 31.25C26.25 31.9403 26.8097 32.5 27.5 32.5Z" fill="#599C12"/>
<path d="M23.75 32.5C24.4403 32.5 25 31.9403 25 31.25C25 30.5597 24.4403 30 23.75 30C23.0597 30 22.5 30.5597 22.5 31.25C22.5 31.9403 23.0597 32.5 23.75 32.5Z" fill="#599C12"/>
<path d="M20 32.5C20.6903 32.5 21.25 31.9403 21.25 31.25C21.25 30.5597 20.6903 30 20 30C19.3097 30 18.75 30.5597 18.75 31.25C18.75 31.9403 19.3097 32.5 20 32.5Z" fill="#599C12"/>
<path d="M16.25 32.5C16.9403 32.5 17.5 31.9403 17.5 31.25C17.5 30.5597 16.9403 30 16.25 30C15.5597 30 15 30.5597 15 31.25C15 31.9403 15.5597 32.5 16.25 32.5Z" fill="#599C12"/>
<path d="M23.75 28.75C24.4403 28.75 25 28.1903 25 27.5C25 26.8097 24.4403 26.25 23.75 26.25C23.0597 26.25 22.5 26.8097 22.5 27.5C22.5 28.1903 23.0597 28.75 23.75 28.75Z" fill="#599C12"/>
<path d="M20 28.75C20.6903 28.75 21.25 28.1903 21.25 27.5C21.25 26.8097 20.6903 26.25 20 26.25C19.3097 26.25 18.75 26.8097 18.75 27.5C18.75 28.1903 19.3097 28.75 20 28.75Z" fill="#599C12"/>
<path d="M20 25C20.6903 25 21.25 24.4403 21.25 23.75C21.25 23.0597 20.6903 22.5 20 22.5C19.3097 22.5 18.75 23.0597 18.75 23.75C18.75 24.4403 19.3097 25 20 25Z" fill="#599C12"/>
<path d="M16.25 25C16.9403 25 17.5 24.4403 17.5 23.75C17.5 23.0597 16.9403 22.5 16.25 22.5C15.5597 22.5 15 23.0597 15 23.75C15 24.4403 15.5597 25 16.25 25Z" fill="#599C12"/>
<path d="M16.25 21.25C16.9403 21.25 17.5 20.6903 17.5 20C17.5 19.3097 16.9403 18.75 16.25 18.75C15.5597 18.75 15 19.3097 15 20C15 20.6903 15.5597 21.25 16.25 21.25Z" fill="#599C12"/>
<path d="M12.5 21.25C13.1903 21.25 13.75 20.6903 13.75 20C13.75 19.3097 13.1903 18.75 12.5 18.75C11.8097 18.75 11.25 19.3097 11.25 20C11.25 20.6903 11.8097 21.25 12.5 21.25Z" fill="#599C12"/>
<path d="M12.5 17.5C13.1903 17.5 13.75 16.9403 13.75 16.25C13.75 15.5597 13.1903 15 12.5 15C11.8097 15 11.25 15.5597 11.25 16.25C11.25 16.9403 11.8097 17.5 12.5 17.5Z" fill="#599C12"/>
<path d="M8.75 17.5C9.44033 17.5 10 16.9403 10 16.25C10 15.5597 9.44033 15 8.75 15C8.05964 15 7.5 15.5597 7.5 16.25C7.5 16.9403 8.05964 17.5 8.75 17.5Z" fill="#599C12"/>
<path d="M12.5 13.75C13.1903 13.75 13.75 13.1903 13.75 12.5C13.75 11.8097 13.1903 11.25 12.5 11.25C11.8097 11.25 11.25 11.8097 11.25 12.5C11.25 13.1903 11.8097 13.75 12.5 13.75Z" fill="#599C12"/>
<path d="M23.75 13.75C24.4403 13.75 25 13.1903 25 12.5C25 11.8097 24.4403 11.25 23.75 11.25C23.0597 11.25 22.5 11.8097 22.5 12.5C22.5 13.1903 23.0597 13.75 23.75 13.75Z" fill="#599C12"/>
<path d="M23.75 10C24.4403 10 25 9.44033 25 8.75C25 8.05964 24.4403 7.5 23.75 7.5C23.0597 7.5 22.5 8.05964 22.5 8.75C22.5 9.44033 23.0597 10 23.75 10Z" fill="#599C12"/>
<path d="M8.75 13.75C9.44033 13.75 10 13.1903 10 12.5C10 11.8097 9.44033 11.25 8.75 11.25C8.05964 11.25 7.5 11.8097 7.5 12.5C7.5 13.1903 8.05964 13.75 8.75 13.75Z" fill="#599C12"/>
<path d="M12.5 10C13.1903 10 13.75 9.44033 13.75 8.75C13.75 8.05964 13.1903 7.5 12.5 7.5C11.8097 7.5 11.25 8.05964 11.25 8.75C11.25 9.44033 11.8097 10 12.5 10Z" fill="#599C12"/>
<path d="M16.25 13.75C16.9403 13.75 17.5 13.1903 17.5 12.5C17.5 11.8097 16.9403 11.25 16.25 11.25C15.5597 11.25 15 11.8097 15 12.5C15 13.1903 15.5597 13.75 16.25 13.75Z" fill="#599C12"/>
<path d="M16.25 10C16.9403 10 17.5 9.44033 17.5 8.75C17.5 8.05964 16.9403 7.5 16.25 7.5C15.5597 7.5 15 8.05964 15 8.75C15 9.44033 15.5597 10 16.25 10Z" fill="#599C12"/>
<path d="M35 17.5C35.6903 17.5 36.25 16.9403 36.25 16.25C36.25 15.5597 35.6903 15 35 15C34.3097 15 33.75 15.5597 33.75 16.25C33.75 16.9403 34.3097 17.5 35 17.5Z" fill="#599C12"/>
<path d="M27.5 13.75C28.1903 13.75 28.75 13.1903 28.75 12.5C28.75 11.8097 28.1903 11.25 27.5 11.25C26.8097 11.25 26.25 11.8097 26.25 12.5C26.25 13.1903 26.8097 13.75 27.5 13.75Z" fill="#599C12"/>
<path d="M27.5 10C28.1903 10 28.75 9.44033 28.75 8.75C28.75 8.05964 28.1903 7.5 27.5 7.5C26.8097 7.5 26.25 8.05964 26.25 8.75C26.25 9.44033 26.8097 10 27.5 10Z" fill="#599C12"/>
<path d="M31.25 6.25C31.9403 6.25 32.5 5.69036 32.5 5C32.5 4.30964 31.9403 3.75 31.25 3.75C30.5597 3.75 30 4.30964 30 5C30 5.69036 30.5597 6.25 31.25 6.25Z" fill="#599C12"/>
<path d="M31.25 10C31.9403 10 32.5 9.44033 32.5 8.75C32.5 8.05964 31.9403 7.5 31.25 7.5C30.5597 7.5 30 8.05964 30 8.75C30 9.44033 30.5597 10 31.25 10Z" fill="#599C12"/>
<path d="M31.25 13.75C31.9403 13.75 32.5 13.1903 32.5 12.5C32.5 11.8097 31.9403 11.25 31.25 11.25C30.5597 11.25 30 11.8097 30 12.5C30 13.1903 30.5597 13.75 31.25 13.75Z" fill="#599C12"/>
<path d="M31.25 17.5C31.9403 17.5 32.5 16.9403 32.5 16.25C32.5 15.5597 31.9403 15 31.25 15C30.5597 15 30 15.5597 30 16.25C30 16.9403 30.5597 17.5 31.25 17.5Z" fill="#599C12"/>
<path d="M35 6.25C35.6903 6.25 36.25 5.69036 36.25 5C36.25 4.30964 35.6903 3.75 35 3.75C34.3097 3.75 33.75 4.30964 33.75 5C33.75 5.69036 34.3097 6.25 35 6.25Z" fill="#599C12"/>
<path d="M38.75 6.25C39.4403 6.25 40 5.69036 40 5C40 4.30964 39.4403 3.75 38.75 3.75C38.0597 3.75 37.5 4.30964 37.5 5C37.5 5.69036 38.0597 6.25 38.75 6.25Z" fill="#599C12"/>
<path d="M38.75 17.5C39.4403 17.5 40 16.9403 40 16.25C40 15.5597 39.4403 15 38.75 15C38.0597 15 37.5 15.5597 37.5 16.25C37.5 16.9403 38.0597 17.5 38.75 17.5Z" fill="#599C12"/>
<path d="M8.75 10C9.44033 10 10 9.44033 10 8.75C10 8.05964 9.44033 7.5 8.75 7.5C8.05964 7.5 7.5 8.05964 7.5 8.75C7.5 9.44033 8.05964 10 8.75 10Z" fill="#599C12"/>
<path d="M12.5 6.25C13.1903 6.25 13.75 5.69036 13.75 5C13.75 4.30964 13.1903 3.75 12.5 3.75C11.8097 3.75 11.25 4.30964 11.25 5C11.25 5.69036 11.8097 6.25 12.5 6.25Z" fill="#599C12"/>
<path d="M8.75 6.25C9.44033 6.25 10 5.69036 10 5C10 4.30964 9.44033 3.75 8.75 3.75C8.05964 3.75 7.5 4.30964 7.5 5C7.5 5.69036 8.05964 6.25 8.75 6.25Z" fill="#599C12"/>
<path d="M5 13.75C5.69036 13.75 6.25 13.1903 6.25 12.5C6.25 11.8097 5.69036 11.25 5 11.25C4.30964 11.25 3.75 11.8097 3.75 12.5C3.75 13.1903 4.30964 13.75 5 13.75Z" fill="#599C12"/>
<path d="M5 10C5.69036 10 6.25 9.44033 6.25 8.75C6.25 8.05964 5.69036 7.5 5 7.5C4.30964 7.5 3.75 8.05964 3.75 8.75C3.75 9.44033 4.30964 10 5 10Z" fill="#599C12"/>
<path d="M12.5 32.5C13.1903 32.5 13.75 31.9403 13.75 31.25C13.75 30.5597 13.1903 30 12.5 30C11.8097 30 11.25 30.5597 11.25 31.25C11.25 31.9403 11.8097 32.5 12.5 32.5Z" fill="#599C12"/>
<path d="M8.75 32.5C9.44033 32.5 10 31.9403 10 31.25C10 30.5597 9.44033 30 8.75 30C8.05964 30 7.5 30.5597 7.5 31.25C7.5 31.9403 8.05964 32.5 8.75 32.5Z" fill="#599C12"/>
<path d="M5 32.5C5.69036 32.5 6.25 31.9403 6.25 31.25C6.25 30.5597 5.69036 30 5 30C4.30964 30 3.75 30.5597 3.75 31.25C3.75 31.9403 4.30964 32.5 5 32.5Z" fill="#599C12"/>
<path d="M31.25 36.25C31.9403 36.25 32.5 35.6903 32.5 35C32.5 34.3097 31.9403 33.75 31.25 33.75C30.5597 33.75 30 34.3097 30 35C30 35.6903 30.5597 36.25 31.25 36.25Z" fill="#599C12"/>
<path d="M35 36.25C35.6903 36.25 36.25 35.6903 36.25 35C36.25 34.3097 35.6903 33.75 35 33.75C34.3097 33.75 33.75 34.3097 33.75 35C33.75 35.6903 34.3097 36.25 35 36.25Z" fill="#599C12"/>
<path d="M27.5 36.25C28.1903 36.25 28.75 35.6903 28.75 35C28.75 34.3097 28.1903 33.75 27.5 33.75C26.8097 33.75 26.25 34.3097 26.25 35C26.25 35.6903 26.8097 36.25 27.5 36.25Z" fill="#599C12"/>
<path d="M23.75 36.25C24.4403 36.25 25 35.6903 25 35C25 34.3097 24.4403 33.75 23.75 33.75C23.0597 33.75 22.5 34.3097 22.5 35C22.5 35.6903 23.0597 36.25 23.75 36.25Z" fill="#599C12"/>
<path d="M20 36.25C20.6903 36.25 21.25 35.6903 21.25 35C21.25 34.3097 20.6903 33.75 20 33.75C19.3097 33.75 18.75 34.3097 18.75 35C18.75 35.6903 19.3097 36.25 20 36.25Z" fill="#599C12"/>
<path d="M16.25 36.25C16.9403 36.25 17.5 35.6903 17.5 35C17.5 34.3097 16.9403 33.75 16.25 33.75C15.5597 33.75 15 34.3097 15 35C15 35.6903 15.5597 36.25 16.25 36.25Z" fill="#599C12"/>
<path d="M12.5 36.25C13.1903 36.25 13.75 35.6903 13.75 35C13.75 34.3097 13.1903 33.75 12.5 33.75C11.8097 33.75 11.25 34.3097 11.25 35C11.25 35.6903 11.8097 36.25 12.5 36.25Z" fill="#599C12"/>
<path d="M8.75 36.25C9.44033 36.25 10 35.6903 10 35C10 34.3097 9.44033 33.75 8.75 33.75C8.05964 33.75 7.5 34.3097 7.5 35C7.5 35.6903 8.05964 36.25 8.75 36.25Z" fill="#599C12"/>
<path d="M5 36.25C5.69036 36.25 6.25 35.6903 6.25 35C6.25 34.3097 5.69036 33.75 5 33.75C4.30964 33.75 3.75 34.3097 3.75 35C3.75 35.6903 4.30964 36.25 5 36.25Z" fill="#599C12"/>
</svg>
