<?xml version="1.0" encoding="UTF-8"?>
<svg xmlns="http://www.w3.org/2000/svg" width="40" height="40" viewBox="0 0 40 40" fill="none">
  <g id="con-synchronize-white" clip-path="url(#clip0_669_1170)">
    <g id="Clip path group">
      <mask id="mask0_669_1170" style="mask-type:luminance" maskUnits="userSpaceOnUse" x="0" y="0" width="40" height="40">
        <g id="clip0_2478_3884">
          <path id="Vector" d="M40 0H0V40H40V0Z" fill="white"></path>
        </g>
      </mask>
      <g mask="url(#mask0_669_1170)">
        <g id="Group">
          <path id="Vector_2" d="M31.25 7.5C30.9185 7.5 30.6005 7.6317 30.3661 7.86612C30.1317 8.10053 30 8.4185 30 8.75C30 9.0815 30.1317 9.3995 30.3661 9.63392C30.6005 9.86833 30.9185 10 31.25 10C31.5815 10 31.8995 9.86833 32.1339 9.63392C32.3683 9.3995 32.5 9.0815 32.5 8.75C32.5 8.4185 32.3683 8.10053 32.1339 7.86612C31.8995 7.6317 31.5815 7.5 31.25 7.5ZM16.25 7.5C15.9185 7.5 15.6005 7.6317 15.3661 7.86612C15.1317 8.10053 15 8.4185 15 8.75C15 9.0815 15.1317 9.3995 15.3661 9.63392C15.6005 9.86833 15.9185 10 16.25 10C16.5815 10 16.8995 9.86833 17.1339 9.63392C17.3683 9.3995 17.5 9.0815 17.5 8.75C17.5 8.4185 17.3683 8.10053 17.1339 7.86612C16.8995 7.6317 16.5815 7.5 16.25 7.5ZM20 7.5C19.6685 7.5 19.3505 7.6317 19.1161 7.86612C18.8817 8.10053 18.75 8.4185 18.75 8.75C18.75 9.0815 18.8817 9.3995 19.1161 9.63392C19.3505 9.86833 19.6685 10 20 10C20.3315 10 20.6495 9.86833 20.8839 9.63392C21.1183 9.3995 21.25 9.0815 21.25 8.75C21.25 8.4185 21.1183 8.10053 20.8839 7.86612C20.6495 7.6317 20.3315 7.5 20 7.5ZM12.5 7.5C12.1685 7.5 11.8505 7.6317 11.6161 7.86612C11.3817 8.10053 11.25 8.4185 11.25 8.75C11.25 9.0815 11.3817 9.3995 11.6161 9.63392C11.8505 9.86833 12.1685 10 12.5 10C12.8315 10 13.1495 9.86833 13.3839 9.63392C13.6183 9.3995 13.75 9.0815 13.75 8.75C13.75 8.4185 13.6183 8.10053 13.3839 7.86612C13.1495 7.6317 12.8315 7.5 12.5 7.5ZM8.75 7.5C8.4185 7.5 8.10053 7.6317 7.86612 7.86612C7.6317 8.10053 7.5 8.4185 7.5 8.75C7.5 9.0815 7.6317 9.3995 7.86612 9.63392C8.10053 9.86833 8.4185 10 8.75 10C9.0815 10 9.3995 9.86833 9.63392 9.63392C9.86833 9.3995 10 9.0815 10 8.75C10 8.4185 9.86833 8.10053 9.63392 7.86612C9.3995 7.6317 9.0815 7.5 8.75 7.5ZM35 11.25C34.6685 11.25 34.3505 11.3817 34.1161 11.6161C33.8817 11.8505 33.75 12.1685 33.75 12.5C33.75 12.8315 33.8817 13.1495 34.1161 13.3839C34.3505 13.6183 34.6685 13.75 35 13.75C35.3315 13.75 35.6495 13.6183 35.8839 13.3839C36.1183 13.1495 36.25 12.8315 36.25 12.5C36.25 12.1685 36.1183 11.8505 35.8839 11.6161C35.6495 11.3817 35.3315 11.25 35 11.25ZM5 11.25C4.66848 11.25 4.35053 11.3817 4.11612 11.6161C3.8817 11.8505 3.75 12.1685 3.75 12.5C3.75 12.8315 3.8817 13.1495 4.11612 13.3839C4.35053 13.6183 4.66848 13.75 5 13.75C5.33152 13.75 5.64947 13.6183 5.88388 13.3839C6.1183 13.1495 6.25 12.8315 6.25 12.5C6.25 12.1685 6.1183 11.8505 5.88388 11.6161C5.64947 11.3817 5.33152 11.25 5 11.25ZM5 26.25C4.66848 26.25 4.35053 26.3817 4.11612 26.6161C3.8817 26.8505 3.75 27.1685 3.75 27.5C3.75 27.8315 3.8817 28.1495 4.11612 28.3839C4.35053 28.6183 4.66848 28.75 5 28.75C5.33152 28.75 5.64947 28.6183 5.88388 28.3839C6.1183 28.1495 6.25 27.8315 6.25 27.5C6.25 27.1685 6.1183 26.8505 5.88388 26.6161C5.64947 26.3817 5.33152 26.25 5 26.25ZM8.75 30C8.4185 30 8.10053 30.1317 7.86612 30.3661C7.6317 30.6005 7.5 30.9185 7.5 31.25C7.5 31.5815 7.6317 31.8995 7.86612 32.1339C8.10053 32.3683 8.4185 32.5 8.75 32.5C9.0815 32.5 9.3995 32.3683 9.63392 32.1339C9.86833 31.8995 10 31.5815 10 31.25C10 30.9185 9.86833 30.6005 9.63392 30.3661C9.3995 30.1317 9.0815 30 8.75 30ZM1.25 15C0.918483 15 0.600537 15.1317 0.366117 15.3661C0.131696 15.6005 0 15.9185 0 16.25C0 16.5815 0.131696 16.8995 0.366117 17.1339C0.600537 17.3683 0.918483 17.5 1.25 17.5C1.58152 17.5 1.89947 17.3683 2.13388 17.1339C2.3683 16.8995 2.5 16.5815 2.5 16.25C2.5 15.9185 2.3683 15.6005 2.13388 15.3661C1.89947 15.1317 1.58152 15 1.25 15ZM1.25 22.5C0.918483 22.5 0.600537 22.6317 0.366117 22.8661C0.131696 23.1005 0 23.4185 0 23.75C0 24.0815 0.131696 24.3995 0.366117 24.6339C0.600537 24.8683 0.918483 25 1.25 25C1.58152 25 1.89947 24.8683 2.13388 24.6339C2.3683 24.3995 2.5 24.0815 2.5 23.75C2.5 23.4185 2.3683 23.1005 2.13388 22.8661C1.89947 22.6317 1.58152 22.5 1.25 22.5ZM35 26.25C34.6685 26.25 34.3505 26.3817 34.1161 26.6161C33.8817 26.8505 33.75 27.1685 33.75 27.5C33.75 27.8315 33.8817 28.1495 34.1161 28.3839C34.3505 28.6183 34.6685 28.75 35 28.75C35.3315 28.75 35.6495 28.6183 35.8839 28.3839C36.1183 28.1495 36.25 27.8315 36.25 27.5C36.25 27.1685 36.1183 26.8505 35.8839 26.6161C35.6495 26.3817 35.3315 26.25 35 26.25ZM1.25 18.75C0.918483 18.75 0.600537 18.8817 0.366117 19.1161C0.131696 19.3505 0 19.6685 0 20C0 20.3315 0.131696 20.6495 0.366117 20.8839C0.600537 21.1183 0.918483 21.25 1.25 21.25C1.58152 21.25 1.89947 21.1183 2.13388 20.8839C2.3683 20.6495 2.5 20.3315 2.5 20C2.5 19.6685 2.3683 19.3505 2.13388 19.1161C1.89947 18.8817 1.58152 18.75 1.25 18.75ZM16.25 11.25C15.9185 11.25 15.6005 11.3817 15.3661 11.6161C15.1317 11.8505 15 12.1685 15 12.5C15 12.8315 15.1317 13.1495 15.3661 13.3839C15.6005 13.6183 15.9185 13.75 16.25 13.75C16.5815 13.75 16.8995 13.6183 17.1339 13.3839C17.3683 13.1495 17.5 12.8315 17.5 12.5C17.5 12.1685 17.3683 11.8505 17.1339 11.6161C16.8995 11.3817 16.5815 11.25 16.25 11.25ZM12.5 15C12.1685 15 11.8505 15.1317 11.6161 15.3661C11.3817 15.6005 11.25 15.9185 11.25 16.25C11.25 16.5815 11.3817 16.8995 11.6161 17.1339C11.8505 17.3683 12.1685 17.5 12.5 17.5C12.8315 17.5 13.1495 17.3683 13.3839 17.1339C13.6183 16.8995 13.75 16.5815 13.75 16.25C13.75 15.9185 13.6183 15.6005 13.3839 15.3661C13.1495 15.1317 12.8315 15 12.5 15ZM16.25 3.75C15.9185 3.75 15.6005 3.8817 15.3661 4.11612C15.1317 4.35053 15 4.66848 15 5C15 5.33152 15.1317 5.64947 15.3661 5.88388C15.6005 6.1183 15.9185 6.25 16.25 6.25C16.5815 6.25 16.8995 6.1183 17.1339 5.88388C17.3683 5.64947 17.5 5.33152 17.5 5C17.5 4.66848 17.3683 4.35053 17.1339 4.11612C16.8995 3.8817 16.5815 3.75 16.25 3.75ZM12.5 0C12.1685 0 11.8505 0.131696 11.6161 0.366117C11.3817 0.600537 11.25 0.918483 11.25 1.25C11.25 1.58152 11.3817 1.89947 11.6161 2.13388C11.8505 2.3683 12.1685 2.5 12.5 2.5C12.8315 2.5 13.1495 2.3683 13.3839 2.13388C13.6183 1.89947 13.75 1.58152 13.75 1.25C13.75 0.918483 13.6183 0.600537 13.3839 0.366117C13.1495 0.131696 12.8315 0 12.5 0ZM38.75 15C38.4185 15 38.1005 15.1317 37.8661 15.3661C37.6317 15.6005 37.5 15.9185 37.5 16.25C37.5 16.5815 37.6317 16.8995 37.8661 17.1339C38.1005 17.3683 38.4185 17.5 38.75 17.5C39.0815 17.5 39.3995 17.3683 39.6339 17.1339C39.8683 16.8995 40 16.5815 40 16.25C40 15.9185 39.8683 15.6005 39.6339 15.3661C39.3995 15.1317 39.0815 15 38.75 15ZM38.75 18.75C38.4185 18.75 38.1005 18.8817 37.8661 19.1161C37.6317 19.3505 37.5 19.6685 37.5 20C37.5 20.3315 37.6317 20.6495 37.8661 20.8839C38.1005 21.1183 38.4185 21.25 38.75 21.25C39.0815 21.25 39.3995 21.1183 39.6339 20.8839C39.8683 20.6495 40 20.3315 40 20C40 19.6685 39.8683 19.3505 39.6339 19.1161C39.3995 18.8817 39.0815 18.75 38.75 18.75ZM38.75 22.5C38.4185 22.5 38.1005 22.6317 37.8661 22.8661C37.6317 23.1005 37.5 23.4185 37.5 23.75C37.5 24.0815 37.6317 24.3995 37.8661 24.6339C38.1005 24.8683 38.4185 25 38.75 25C39.0815 25 39.3995 24.8683 39.6339 24.6339C39.8683 24.3995 40 24.0815 40 23.75C40 23.4185 39.8683 23.1005 39.6339 22.8661C39.3995 22.6317 39.0815 22.5 38.75 22.5ZM23.75 26.25C23.4185 26.25 23.1005 26.3817 22.8661 26.6161C22.6317 26.8505 22.5 27.1685 22.5 27.5C22.5 27.8315 22.6317 28.1495 22.8661 28.3839C23.1005 28.6183 23.4185 28.75 23.75 28.75C24.0815 28.75 24.3995 28.6183 24.6339 28.3839C24.8683 28.1495 25 27.8315 25 27.5C25 27.1685 24.8683 26.8505 24.6339 26.6161C24.3995 26.3817 24.0815 26.25 23.75 26.25ZM27.5 22.5C27.1685 22.5 26.8505 22.6317 26.6161 22.8661C26.3817 23.1005 26.25 23.4185 26.25 23.75C26.25 24.0815 26.3817 24.3995 26.6161 24.6339C26.8505 24.8683 27.1685 25 27.5 25C27.8315 25 28.1495 24.8683 28.3839 24.6339C28.6183 24.3995 28.75 24.0815 28.75 23.75C28.75 23.4185 28.6183 23.1005 28.3839 22.8661C28.1495 22.6317 27.8315 22.5 27.5 22.5ZM23.75 33.75C23.4185 33.75 23.1005 33.8817 22.8661 34.1161C22.6317 34.3505 22.5 34.6685 22.5 35C22.5 35.3315 22.6317 35.6495 22.8661 35.8839C23.1005 36.1183 23.4185 36.25 23.75 36.25C24.0815 36.25 24.3995 36.1183 24.6339 35.8839C24.8683 35.6495 25 35.3315 25 35C25 34.6685 24.8683 34.3505 24.6339 34.1161C24.3995 33.8817 24.0815 33.75 23.75 33.75ZM27.5 37.5C27.1685 37.5 26.8505 37.6317 26.6161 37.8661C26.3817 38.1005 26.25 38.4185 26.25 38.75C26.25 39.0815 26.3817 39.3995 26.6161 39.6339C26.8505 39.8683 27.1685 40 27.5 40C27.8315 40 28.1495 39.8683 28.3839 39.6339C28.6183 39.3995 28.75 39.0815 28.75 38.75C28.75 38.4185 28.6183 38.1005 28.3839 37.8661C28.1495 37.6317 27.8315 37.5 27.5 37.5ZM31.25 30C30.9185 30 30.6005 30.1317 30.3661 30.3661C30.1317 30.6005 30 30.9185 30 31.25C30 31.5815 30.1317 31.8995 30.3661 32.1339C30.6005 32.3683 30.9185 32.5 31.25 32.5C31.5815 32.5 31.8995 32.3683 32.1339 32.1339C32.3683 31.8995 32.5 31.5815 32.5 31.25C32.5 30.9185 32.3683 30.6005 32.1339 30.3661C31.8995 30.1317 31.5815 30 31.25 30ZM27.5 30C27.1685 30 26.8505 30.1317 26.6161 30.3661C26.3817 30.6005 26.25 30.9185 26.25 31.25C26.25 31.5815 26.3817 31.8995 26.6161 32.1339C26.8505 32.3683 27.1685 32.5 27.5 32.5C27.8315 32.5 28.1495 32.3683 28.3839 32.1339C28.6183 31.8995 28.75 31.5815 28.75 31.25C28.75 30.9185 28.6183 30.6005 28.3839 30.3661C28.1495 30.1317 27.8315 30 27.5 30ZM23.75 30C23.4185 30 23.1005 30.1317 22.8661 30.3661C22.6317 30.6005 22.5 30.9185 22.5 31.25C22.5 31.5815 22.6317 31.8995 22.8661 32.1339C23.1005 32.3683 23.4185 32.5 23.75 32.5C24.0815 32.5 24.3995 32.3683 24.6339 32.1339C24.8683 31.8995 25 31.5815 25 31.25C25 30.9185 24.8683 30.6005 24.6339 30.3661C24.3995 30.1317 24.0815 30 23.75 30ZM20 30C19.6685 30 19.3505 30.1317 19.1161 30.3661C18.8817 30.6005 18.75 30.9185 18.75 31.25C18.75 31.5815 18.8817 31.8995 19.1161 32.1339C19.3505 32.3683 19.6685 32.5 20 32.5C20.3315 32.5 20.6495 32.3683 20.8839 32.1339C21.1183 31.8995 21.25 31.5815 21.25 31.25C21.25 30.9185 21.1183 30.6005 20.8839 30.3661C20.6495 30.1317 20.3315 30 20 30Z" fill="#599C12"></path>
        </g>
      </g>
    </g>
  </g>
  <defs>
    <clipPath id="clip0_669_1170">
      <rect width="40" height="40" fill="white"></rect>
    </clipPath>
  </defs>
</svg>
