<?xml version="1.0" encoding="UTF-8"?>
<svg xmlns="http://www.w3.org/2000/svg" width="40" height="40" viewBox="0 0 40 40" fill="none">
  <g id="icon-swap" clip-path="url(#clip0_669_1112)">
    <g id="Clip path group">
      <mask id="mask0_669_1112" style="mask-type:luminance" maskUnits="userSpaceOnUse" x="0" y="0" width="40" height="40">
        <g id="clip0_2401_539">
          <path id="Vector" d="M40 0H0V40H40V0Z" fill="white"></path>
        </g>
      </mask>
      <g mask="url(#mask0_669_1112)">
        <g id="Group">
          <path id="Vector_2" d="M23.75 3.75C23.4185 3.75 23.1005 3.8817 22.8661 4.11612C22.6317 4.35053 22.5 4.66848 22.5 5C22.5 5.33152 22.6317 5.64947 22.8661 5.88388C23.1005 6.1183 23.4185 6.25 23.75 6.25C24.0815 6.25 24.3995 6.1183 24.6339 5.88388C24.8683 5.64947 25 5.33152 25 5C25 4.66848 24.8683 4.35053 24.6339 4.11612C24.3995 3.8817 24.0815 3.75 23.75 3.75ZM27.5 3.75C27.1685 3.75 26.8505 3.8817 26.6161 4.11612C26.3817 4.35053 26.25 4.66848 26.25 5C26.25 5.33152 26.3817 5.64947 26.6161 5.88388C26.8505 6.1183 27.1685 6.25 27.5 6.25C27.8315 6.25 28.1495 6.1183 28.3839 5.88388C28.6183 5.64947 28.75 5.33152 28.75 5C28.75 4.66848 28.6183 4.35053 28.3839 4.11612C28.1495 3.8817 27.8315 3.75 27.5 3.75ZM31.25 3.75C30.9185 3.75 30.6005 3.8817 30.3661 4.11612C30.1317 4.35053 30 4.66848 30 5C30 5.33152 30.1317 5.64947 30.3661 5.88388C30.6005 6.1183 30.9185 6.25 31.25 6.25C31.5815 6.25 31.8995 6.1183 32.1339 5.88388C32.3683 5.64947 32.5 5.33152 32.5 5C32.5 4.66848 32.3683 4.35053 32.1339 4.11612C31.8995 3.8817 31.5815 3.75 31.25 3.75ZM5 3.75C4.66848 3.75 4.35053 3.8817 4.11612 4.11612C3.8817 4.35053 3.75 4.66848 3.75 5C3.75 5.33152 3.8817 5.64947 4.11612 5.88388C4.35053 6.1183 4.66848 6.25 5 6.25C5.33152 6.25 5.64947 6.1183 5.88388 5.88388C6.1183 5.64947 6.25 5.33152 6.25 5C6.25 4.66848 6.1183 4.35053 5.88388 4.11612C5.64947 3.8817 5.33152 3.75 5 3.75ZM35 7.5C34.6685 7.5 34.3505 7.6317 34.1161 7.86612C33.8817 8.10053 33.75 8.4185 33.75 8.75C33.75 9.0815 33.8817 9.3995 34.1161 9.63392C34.3505 9.86833 34.6685 10 35 10C35.3315 10 35.6495 9.86833 35.8839 9.63392C36.1183 9.3995 36.25 9.0815 36.25 8.75C36.25 8.4185 36.1183 8.10053 35.8839 7.86612C35.6495 7.6317 35.3315 7.5 35 7.5ZM20 7.5C19.6685 7.5 19.3505 7.6317 19.1161 7.86612C18.8817 8.10053 18.75 8.4185 18.75 8.75C18.75 9.0815 18.8817 9.3995 19.1161 9.63392C19.3505 9.86833 19.6685 10 20 10C20.3315 10 20.6495 9.86833 20.8839 9.63392C21.1183 9.3995 21.25 9.0815 21.25 8.75C21.25 8.4185 21.1183 8.10053 20.8839 7.86612C20.6495 7.6317 20.3315 7.5 20 7.5ZM8.75 7.5C8.4185 7.5 8.10053 7.6317 7.86612 7.86612C7.6317 8.10053 7.5 8.4185 7.5 8.75C7.5 9.0815 7.6317 9.3995 7.86612 9.63392C8.10053 9.86833 8.4185 10 8.75 10C9.0815 10 9.3995 9.86833 9.63392 9.63392C9.86833 9.3995 10 9.0815 10 8.75C10 8.4185 9.86833 8.10053 9.63392 7.86612C9.3995 7.6317 9.0815 7.5 8.75 7.5ZM1.25 7.5C0.918483 7.5 0.600537 7.6317 0.366117 7.86612C0.131696 8.10053 0 8.4185 0 8.75C0 9.0815 0.131696 9.3995 0.366117 9.63392C0.600537 9.86833 0.918483 10 1.25 10C1.58152 10 1.89947 9.86833 2.13388 9.63392C2.3683 9.3995 2.5 9.0815 2.5 8.75C2.5 8.4185 2.3683 8.10053 2.13388 7.86612C1.89947 7.6317 1.58152 7.5 1.25 7.5ZM5 7.5C4.66848 7.5 4.35053 7.6317 4.11612 7.86612C3.8817 8.10053 3.75 8.4185 3.75 8.75C3.75 9.0815 3.8817 9.3995 4.11612 9.63392C4.35053 9.86833 4.66848 10 5 10C5.33152 10 5.64947 9.86833 5.88388 9.63392C6.1183 9.3995 6.25 9.0815 6.25 8.75C6.25 8.4185 6.1183 8.10053 5.88388 7.86612C5.64947 7.6317 5.33152 7.5 5 7.5ZM5 11.25C4.66848 11.25 4.35053 11.3817 4.11612 11.6161C3.8817 11.8505 3.75 12.1685 3.75 12.5C3.75 12.8315 3.8817 13.1495 4.11612 13.3839C4.35053 13.6183 4.66848 13.75 5 13.75C5.33152 13.75 5.64947 13.6183 5.88388 13.3839C6.1183 13.1495 6.25 12.8315 6.25 12.5C6.25 12.1685 6.1183 11.8505 5.88388 11.6161C5.64947 11.3817 5.33152 11.25 5 11.25ZM35 15C34.6685 15 34.3505 15.1317 34.1161 15.3661C33.8817 15.6005 33.75 15.9185 33.75 16.25C33.75 16.5815 33.8817 16.8995 34.1161 17.1339C34.3505 17.3683 34.6685 17.5 35 17.5C35.3315 17.5 35.6495 17.3683 35.8839 17.1339C36.1183 16.8995 36.25 16.5815 36.25 16.25C36.25 15.9185 36.1183 15.6005 35.8839 15.3661C35.6495 15.1317 35.3315 15 35 15ZM20 15C19.6685 15 19.3505 15.1317 19.1161 15.3661C18.8817 15.6005 18.75 15.9185 18.75 16.25C18.75 16.5815 18.8817 16.8995 19.1161 17.1339C19.3505 17.3683 19.6685 17.5 20 17.5C20.3315 17.5 20.6495 17.3683 20.8839 17.1339C21.1183 16.8995 21.25 16.5815 21.25 16.25C21.25 15.9185 21.1183 15.6005 20.8839 15.3661C20.6495 15.1317 20.3315 15 20 15ZM35 11.25C34.6685 11.25 34.3505 11.3817 34.1161 11.6161C33.8817 11.8505 33.75 12.1685 33.75 12.5C33.75 12.8315 33.8817 13.1495 34.1161 13.3839C34.3505 13.6183 34.6685 13.75 35 13.75C35.3315 13.75 35.6495 13.6183 35.8839 13.3839C36.1183 13.1495 36.25 12.8315 36.25 12.5C36.25 12.1685 36.1183 11.8505 35.8839 11.6161C35.6495 11.3817 35.3315 11.25 35 11.25ZM20 11.25C19.6685 11.25 19.3505 11.3817 19.1161 11.6161C18.8817 11.8505 18.75 12.1685 18.75 12.5C18.75 12.8315 18.8817 13.1495 19.1161 13.3839C19.3505 13.6183 19.6685 13.75 20 13.75C20.3315 13.75 20.6495 13.6183 20.8839 13.3839C21.1183 13.1495 21.25 12.8315 21.25 12.5C21.25 12.1685 21.1183 11.8505 20.8839 11.6161C20.6495 11.3817 20.3315 11.25 20 11.25ZM5 15C4.66848 15 4.35053 15.1317 4.11612 15.3661C3.8817 15.6005 3.75 15.9185 3.75 16.25C3.75 16.5815 3.8817 16.8995 4.11612 17.1339C4.35053 17.3683 4.66848 17.5 5 17.5C5.33152 17.5 5.64947 17.3683 5.88388 17.1339C6.1183 16.8995 6.25 16.5815 6.25 16.25C6.25 15.9185 6.1183 15.6005 5.88388 15.3661C5.64947 15.1317 5.33152 15 5 15ZM35 18.75C34.6685 18.75 34.3505 18.8817 34.1161 19.1161C33.8817 19.3505 33.75 19.6685 33.75 20C33.75 20.3315 33.8817 20.6495 34.1161 20.8839C34.3505 21.1183 34.6685 21.25 35 21.25C35.3315 21.25 35.6495 21.1183 35.8839 20.8839C36.1183 20.6495 36.25 20.3315 36.25 20C36.25 19.6685 36.1183 19.3505 35.8839 19.1161C35.6495 18.8817 35.3315 18.75 35 18.75ZM20 18.75C19.6685 18.75 19.3505 18.8817 19.1161 19.1161C18.8817 19.3505 18.75 19.6685 18.75 20C18.75 20.3315 18.8817 20.6495 19.1161 20.8839C19.3505 21.1183 19.6685 21.25 20 21.25C20.3315 21.25 20.6495 21.1183 20.8839 20.8839C21.1183 20.6495 21.25 20.3315 21.25 20C21.25 19.6685 21.1183 19.3505 20.8839 19.1161C20.6495 18.8817 20.3315 18.75 20 18.75ZM5 18.75C4.66848 18.75 4.35053 18.8817 4.11612 19.1161C3.8817 19.3505 3.75 19.6685 3.75 20C3.75 20.3315 3.8817 20.6495 4.11612 20.8839C4.35053 21.1183 4.66848 21.25 5 21.25C5.33152 21.25 5.64947 21.1183 5.88388 20.8839C6.1183 20.6495 6.25 20.3315 6.25 20C6.25 19.6685 6.1183 19.3505 5.88388 19.1161C5.64947 18.8817 5.33152 18.75 5 18.75ZM35 22.5C34.6685 22.5 34.3505 22.6317 34.1161 22.8661C33.8817 23.1005 33.75 23.4185 33.75 23.75C33.75 24.0815 33.8817 24.3995 34.1161 24.6339C34.3505 24.8683 34.6685 25 35 25C35.3315 25 35.6495 24.8683 35.8839 24.6339C36.1183 24.3995 36.25 24.0815 36.25 23.75C36.25 23.4185 36.1183 23.1005 35.8839 22.8661C35.6495 22.6317 35.3315 22.5 35 22.5ZM20 22.5C19.6685 22.5 19.3505 22.6317 19.1161 22.8661C18.8817 23.1005 18.75 23.4185 18.75 23.75C18.75 24.0815 18.8817 24.3995 19.1161 24.6339C19.3505 24.8683 19.6685 25 20 25C20.3315 25 20.6495 24.8683 20.8839 24.6339C21.1183 24.3995 21.25 24.0815 21.25 23.75C21.25 23.4185 21.1183 23.1005 20.8839 22.8661C20.6495 22.6317 20.3315 22.5 20 22.5ZM5 22.5C4.66848 22.5 4.35053 22.6317 4.11612 22.8661C3.8817 23.1005 3.75 23.4185 3.75 23.75C3.75 24.0815 3.8817 24.3995 4.11612 24.6339C4.35053 24.8683 4.66848 25 5 25C5.33152 25 5.64947 24.8683 5.88388 24.6339C6.1183 24.3995 6.25 24.0815 6.25 23.75C6.25 23.4185 6.1183 23.1005 5.88388 22.8661C5.64947 22.6317 5.33152 22.5 5 22.5ZM35 26.25C34.6685 26.25 34.3505 26.3817 34.1161 26.6161C33.8817 26.8505 33.75 27.1685 33.75 27.5C33.75 27.8315 33.8817 28.1495 34.1161 28.3839C34.3505 28.6183 34.6685 28.75 35 28.75C35.3315 28.75 35.6495 28.6183 35.8839 28.3839C36.1183 28.1495 36.25 27.8315 36.25 27.5C36.25 27.1685 36.1183 26.8505 35.8839 26.6161C35.6495 26.3817 35.3315 26.25 35 26.25ZM35 30C34.6685 30 34.3505 30.1317 34.1161 30.3661C33.8817 30.6005 33.75 30.9185 33.75 31.25C33.75 31.5815 33.8817 31.8995 34.1161 32.1339C34.3505 32.3683 34.6685 32.5 35 32.5C35.3315 32.5 35.6495 32.3683 35.8839 32.1339C36.1183 31.8995 36.25 31.5815 36.25 31.25C36.25 30.9185 36.1183 30.6005 35.8839 30.3661C35.6495 30.1317 35.3315 30 35 30ZM20 26.25C19.6685 26.25 19.3505 26.3817 19.1161 26.6161C18.8817 26.8505 18.75 27.1685 18.75 27.5C18.75 27.8315 18.8817 28.1495 19.1161 28.3839C19.3505 28.6183 19.6685 28.75 20 28.75C20.3315 28.75 20.6495 28.6183 20.8839 28.3839C21.1183 28.1495 21.25 27.8315 21.25 27.5C21.25 27.1685 21.1183 26.8505 20.8839 26.6161C20.6495 26.3817 20.3315 26.25 20 26.25ZM31.25 30C30.9185 30 30.6005 30.1317 30.3661 30.3661C30.1317 30.6005 30 30.9185 30 31.25C30 31.5815 30.1317 31.8995 30.3661 32.1339C30.6005 32.3683 30.9185 32.5 31.25 32.5C31.5815 32.5 31.8995 32.3683 32.1339 32.1339C32.3683 31.8995 32.5 31.5815 32.5 31.25C32.5 30.9185 32.3683 30.6005 32.1339 30.3661C31.8995 30.1317 31.5815 30 31.25 30ZM38.75 30C38.4185 30 38.1005 30.1317 37.8661 30.3661C37.6317 30.6005 37.5 30.9185 37.5 31.25C37.5 31.5815 37.6317 31.8995 37.8661 32.1339C38.1005 32.3683 38.4185 32.5 38.75 32.5C39.0815 32.5 39.3995 32.3683 39.6339 32.1339C39.8683 31.8995 40 31.5815 40 31.25C40 30.9185 39.8683 30.6005 39.6339 30.3661C39.3995 30.1317 39.0815 30 38.75 30ZM5 26.25C4.66848 26.25 4.35053 26.3817 4.11612 26.6161C3.8817 26.8505 3.75 27.1685 3.75 27.5C3.75 27.8315 3.8817 28.1495 4.11612 28.3839C4.35053 28.6183 4.66848 28.75 5 28.75C5.33152 28.75 5.64947 28.6183 5.88388 28.3839C6.1183 28.1495 6.25 27.8315 6.25 27.5C6.25 27.1685 6.1183 26.8505 5.88388 26.6161C5.64947 26.3817 5.33152 26.25 5 26.25ZM20 30C19.6685 30 19.3505 30.1317 19.1161 30.3661C18.8817 30.6005 18.75 30.9185 18.75 31.25C18.75 31.5815 18.8817 31.8995 19.1161 32.1339C19.3505 32.3683 19.6685 32.5 20 32.5C20.3315 32.5 20.6495 32.3683 20.8839 32.1339C21.1183 31.8995 21.25 31.5815 21.25 31.25C21.25 30.9185 21.1183 30.6005 20.8839 30.3661C20.6495 30.1317 20.3315 30 20 30ZM5 30C4.66848 30 4.35053 30.1317 4.11612 30.3661C3.8817 30.6005 3.75 30.9185 3.75 31.25C3.75 31.5815 3.8817 31.8995 4.11612 32.1339C4.35053 32.3683 4.66848 32.5 5 32.5C5.33152 32.5 5.64947 32.3683 5.88388 32.1339C6.1183 31.8995 6.25 31.5815 6.25 31.25C6.25 30.9185 6.1183 30.6005 5.88388 30.3661C5.64947 30.1317 5.33152 30 5 30ZM35 33.75C34.6685 33.75 34.3505 33.8817 34.1161 34.1161C33.8817 34.3505 33.75 34.6685 33.75 35C33.75 35.3315 33.8817 35.6495 34.1161 35.8839C34.3505 36.1183 34.6685 36.25 35 36.25C35.3315 36.25 35.6495 36.1183 35.8839 35.8839C36.1183 35.6495 36.25 35.3315 36.25 35C36.25 34.6685 36.1183 34.3505 35.8839 34.1161C35.6495 33.8817 35.3315 33.75 35 33.75ZM16.25 33.75C15.9185 33.75 15.6005 33.8817 15.3661 34.1161C15.1317 34.3505 15 34.6685 15 35C15 35.3315 15.1317 35.6495 15.3661 35.8839C15.6005 36.1183 15.9185 36.25 16.25 36.25C16.5815 36.25 16.8995 36.1183 17.1339 35.8839C17.3683 35.6495 17.5 35.3315 17.5 35C17.5 34.6685 17.3683 34.3505 17.1339 34.1161C16.8995 33.8817 16.5815 33.75 16.25 33.75ZM12.5 33.75C12.1685 33.75 11.8505 33.8817 11.6161 34.1161C11.3817 34.3505 11.25 34.6685 11.25 35C11.25 35.3315 11.3817 35.6495 11.6161 35.8839C11.8505 36.1183 12.1685 36.25 12.5 36.25C12.8315 36.25 13.1495 36.1183 13.3839 35.8839C13.6183 35.6495 13.75 35.3315 13.75 35C13.75 34.6685 13.6183 34.3505 13.3839 34.1161C13.1495 33.8817 12.8315 33.75 12.5 33.75ZM8.75 33.75C8.4185 33.75 8.10053 33.8817 7.86612 34.1161C7.6317 34.3505 7.5 34.6685 7.5 35C7.5 35.3315 7.6317 35.6495 7.86612 35.8839C8.10053 36.1183 8.4185 36.25 8.75 36.25C9.0815 36.25 9.3995 36.1183 9.63392 35.8839C9.86833 35.6495 10 35.3315 10 35C10 34.6685 9.86833 34.3505 9.63392 34.1161C9.3995 33.8817 9.0815 33.75 8.75 33.75Z" fill="#599C12"></path>
        </g>
      </g>
    </g>
  </g>
  <defs>
    <clipPath id="clip0_669_1112">
      <rect width="40" height="40" fill="white"></rect>
    </clipPath>
  </defs>
</svg>
