<?xml version="1.0" encoding="UTF-8"?>
<svg xmlns="http://www.w3.org/2000/svg" width="40" height="40" viewBox="0 0 40 40" fill="none">
  <g id="icon-calendar-white" clip-path="url(#clip0_669_1176)">
    <g id="Clip path group">
      <mask id="mask0_669_1176" style="mask-type:luminance" maskUnits="userSpaceOnUse" x="0" y="0" width="40" height="40">
        <g id="clip0_2478_3869">
          <path id="Vector" d="M40 0H0V40H40V0Z" fill="white"></path>
        </g>
      </mask>
      <g mask="url(#mask0_669_1176)">
        <g id="Group">
          <path id="Vector_2" d="M31.25 3.75C30.9185 3.75 30.6005 3.8817 30.3661 4.11612C30.1317 4.35053 30 4.66848 30 5C30 5.33152 30.1317 5.64947 30.3661 5.88388C30.6005 6.1183 30.9185 6.25 31.25 6.25C31.5815 6.25 31.8995 6.1183 32.1339 5.88388C32.3683 5.64947 32.5 5.33152 32.5 5C32.5 4.66848 32.3683 4.35053 32.1339 4.11612C31.8995 3.8817 31.5815 3.75 31.25 3.75ZM27.5 3.75C27.1685 3.75 26.8505 3.8817 26.6161 4.11612C26.3817 4.35053 26.25 4.66848 26.25 5C26.25 5.33152 26.3817 5.64947 26.6161 5.88388C26.8505 6.1183 27.1685 6.25 27.5 6.25C27.8315 6.25 28.1495 6.1183 28.3839 5.88388C28.6183 5.64947 28.75 5.33152 28.75 5C28.75 4.66848 28.6183 4.35053 28.3839 4.11612C28.1495 3.8817 27.8315 3.75 27.5 3.75ZM23.75 3.75C23.4185 3.75 23.1005 3.8817 22.8661 4.11612C22.6317 4.35053 22.5 4.66848 22.5 5C22.5 5.33152 22.6317 5.64947 22.8661 5.88388C23.1005 6.1183 23.4185 6.25 23.75 6.25C24.0815 6.25 24.3995 6.1183 24.6339 5.88388C24.8683 5.64947 25 5.33152 25 5C25 4.66848 24.8683 4.35053 24.6339 4.11612C24.3995 3.8817 24.0815 3.75 23.75 3.75ZM20 3.75C19.6685 3.75 19.3505 3.8817 19.1161 4.11612C18.8817 4.35053 18.75 4.66848 18.75 5C18.75 5.33152 18.8817 5.64947 19.1161 5.88388C19.3505 6.1183 19.6685 6.25 20 6.25C20.3315 6.25 20.6495 6.1183 20.8839 5.88388C21.1183 5.64947 21.25 5.33152 21.25 5C21.25 4.66848 21.1183 4.35053 20.8839 4.11612C20.6495 3.8817 20.3315 3.75 20 3.75ZM16.25 3.75C15.9185 3.75 15.6005 3.8817 15.3661 4.11612C15.1317 4.35053 15 4.66848 15 5C15 5.33152 15.1317 5.64947 15.3661 5.88388C15.6005 6.1183 15.9185 6.25 16.25 6.25C16.5815 6.25 16.8995 6.1183 17.1339 5.88388C17.3683 5.64947 17.5 5.33152 17.5 5C17.5 4.66848 17.3683 4.35053 17.1339 4.11612C16.8995 3.8817 16.5815 3.75 16.25 3.75ZM12.5 3.75C12.1685 3.75 11.8505 3.8817 11.6161 4.11612C11.3817 4.35053 11.25 4.66848 11.25 5C11.25 5.33152 11.3817 5.64947 11.6161 5.88388C11.8505 6.1183 12.1685 6.25 12.5 6.25C12.8315 6.25 13.1495 6.1183 13.3839 5.88388C13.6183 5.64947 13.75 5.33152 13.75 5C13.75 4.66848 13.6183 4.35053 13.3839 4.11612C13.1495 3.8817 12.8315 3.75 12.5 3.75ZM27.5 0C27.1685 0 26.8505 0.131696 26.6161 0.366117C26.3817 0.600537 26.25 0.918483 26.25 1.25C26.25 1.58152 26.3817 1.89947 26.6161 2.13388C26.8505 2.3683 27.1685 2.5 27.5 2.5C27.8315 2.5 28.1495 2.3683 28.3839 2.13388C28.6183 1.89947 28.75 1.58152 28.75 1.25C28.75 0.918483 28.6183 0.600537 28.3839 0.366117C28.1495 0.131696 27.8315 0 27.5 0ZM12.5 0C12.1685 0 11.8505 0.131696 11.6161 0.366117C11.3817 0.600537 11.25 0.918483 11.25 1.25C11.25 1.58152 11.3817 1.89947 11.6161 2.13388C11.8505 2.3683 12.1685 2.5 12.5 2.5C12.8315 2.5 13.1495 2.3683 13.3839 2.13388C13.6183 1.89947 13.75 1.58152 13.75 1.25C13.75 0.918483 13.6183 0.600537 13.3839 0.366117C13.1495 0.131696 12.8315 0 12.5 0ZM8.75 3.75C8.4185 3.75 8.10053 3.8817 7.86612 4.11612C7.6317 4.35053 7.5 4.66848 7.5 5C7.5 5.33152 7.6317 5.64947 7.86612 5.88388C8.10053 6.1183 8.4185 6.25 8.75 6.25C9.0815 6.25 9.3995 6.1183 9.63392 5.88388C9.86833 5.64947 10 5.33152 10 5C10 4.66848 9.86833 4.35053 9.63392 4.11612C9.3995 3.8817 9.0815 3.75 8.75 3.75ZM5 3.75C4.66848 3.75 4.35053 3.8817 4.11612 4.11612C3.8817 4.35053 3.75 4.66848 3.75 5C3.75 5.33152 3.8817 5.64947 4.11612 5.88388C4.35053 6.1183 4.66848 6.25 5 6.25C5.33152 6.25 5.64947 6.1183 5.88388 5.88388C6.1183 5.64947 6.25 5.33152 6.25 5C6.25 4.66848 6.1183 4.35053 5.88388 4.11612C5.64947 3.8817 5.33152 3.75 5 3.75ZM31.25 7.5C30.9185 7.5 30.6005 7.6317 30.3661 7.86612C30.1317 8.10053 30 8.4185 30 8.75C30 9.0815 30.1317 9.3995 30.3661 9.63392C30.6005 9.86833 30.9185 10 31.25 10C31.5815 10 31.8995 9.86833 32.1339 9.63392C32.3683 9.3995 32.5 9.0815 32.5 8.75C32.5 8.4185 32.3683 8.10053 32.1339 7.86612C31.8995 7.6317 31.5815 7.5 31.25 7.5ZM27.5 7.5C27.1685 7.5 26.8505 7.6317 26.6161 7.86612C26.3817 8.10053 26.25 8.4185 26.25 8.75C26.25 9.0815 26.3817 9.3995 26.6161 9.63392C26.8505 9.86833 27.1685 10 27.5 10C27.8315 10 28.1495 9.86833 28.3839 9.63392C28.6183 9.3995 28.75 9.0815 28.75 8.75C28.75 8.4185 28.6183 8.10053 28.3839 7.86612C28.1495 7.6317 27.8315 7.5 27.5 7.5ZM23.75 7.5C23.4185 7.5 23.1005 7.6317 22.8661 7.86612C22.6317 8.10053 22.5 8.4185 22.5 8.75C22.5 9.0815 22.6317 9.3995 22.8661 9.63392C23.1005 9.86833 23.4185 10 23.75 10C24.0815 10 24.3995 9.86833 24.6339 9.63392C24.8683 9.3995 25 9.0815 25 8.75C25 8.4185 24.8683 8.10053 24.6339 7.86612C24.3995 7.6317 24.0815 7.5 23.75 7.5ZM20 7.5C19.6685 7.5 19.3505 7.6317 19.1161 7.86612C18.8817 8.10053 18.75 8.4185 18.75 8.75C18.75 9.0815 18.8817 9.3995 19.1161 9.63392C19.3505 9.86833 19.6685 10 20 10C20.3315 10 20.6495 9.86833 20.8839 9.63392C21.1183 9.3995 21.25 9.0815 21.25 8.75C21.25 8.4185 21.1183 8.10053 20.8839 7.86612C20.6495 7.6317 20.3315 7.5 20 7.5ZM16.25 7.5C15.9185 7.5 15.6005 7.6317 15.3661 7.86612C15.1317 8.10053 15 8.4185 15 8.75C15 9.0815 15.1317 9.3995 15.3661 9.63392C15.6005 9.86833 15.9185 10 16.25 10C16.5815 10 16.8995 9.86833 17.1339 9.63392C17.3683 9.3995 17.5 9.0815 17.5 8.75C17.5 8.4185 17.3683 8.10053 17.1339 7.86612C16.8995 7.6317 16.5815 7.5 16.25 7.5ZM12.5 7.5C12.1685 7.5 11.8505 7.6317 11.6161 7.86612C11.3817 8.10053 11.25 8.4185 11.25 8.75C11.25 9.0815 11.3817 9.3995 11.6161 9.63392C11.8505 9.86833 12.1685 10 12.5 10C12.8315 10 13.1495 9.86833 13.3839 9.63392C13.6183 9.3995 13.75 9.0815 13.75 8.75C13.75 8.4185 13.6183 8.10053 13.3839 7.86612C13.1495 7.6317 12.8315 7.5 12.5 7.5ZM8.75 7.5C8.4185 7.5 8.10053 7.6317 7.86612 7.86612C7.6317 8.10053 7.5 8.4185 7.5 8.75C7.5 9.0815 7.6317 9.3995 7.86612 9.63392C8.10053 9.86833 8.4185 10 8.75 10C9.0815 10 9.3995 9.86833 9.63392 9.63392C9.86833 9.3995 10 9.0815 10 8.75C10 8.4185 9.86833 8.10053 9.63392 7.86612C9.3995 7.6317 9.0815 7.5 8.75 7.5ZM5 7.5C4.66848 7.5 4.35053 7.6317 4.11612 7.86612C3.8817 8.10053 3.75 8.4185 3.75 8.75C3.75 9.0815 3.8817 9.3995 4.11612 9.63392C4.35053 9.86833 4.66848 10 5 10C5.33152 10 5.64947 9.86833 5.88388 9.63392C6.1183 9.3995 6.25 9.0815 6.25 8.75C6.25 8.4185 6.1183 8.10053 5.88388 7.86612C5.64947 7.6317 5.33152 7.5 5 7.5ZM31.25 11.25C30.9185 11.25 30.6005 11.3817 30.3661 11.6161C30.1317 11.8505 30 12.1685 30 12.5C30 12.8315 30.1317 13.1495 30.3661 13.3839C30.6005 13.6183 30.9185 13.75 31.25 13.75C31.5815 13.75 31.8995 13.6183 32.1339 13.3839C32.3683 13.1495 32.5 12.8315 32.5 12.5C32.5 12.1685 32.3683 11.8505 32.1339 11.6161C31.8995 11.3817 31.5815 11.25 31.25 11.25ZM27.5 11.25C27.1685 11.25 26.8505 11.3817 26.6161 11.6161C26.3817 11.8505 26.25 12.1685 26.25 12.5C26.25 12.8315 26.3817 13.1495 26.6161 13.3839C26.8505 13.6183 27.1685 13.75 27.5 13.75C27.8315 13.75 28.1495 13.6183 28.3839 13.3839C28.6183 13.1495 28.75 12.8315 28.75 12.5C28.75 12.1685 28.6183 11.8505 28.3839 11.6161C28.1495 11.3817 27.8315 11.25 27.5 11.25ZM23.75 11.25C23.4185 11.25 23.1005 11.3817 22.8661 11.6161C22.6317 11.8505 22.5 12.1685 22.5 12.5C22.5 12.8315 22.6317 13.1495 22.8661 13.3839C23.1005 13.6183 23.4185 13.75 23.75 13.75C24.0815 13.75 24.3995 13.6183 24.6339 13.3839C24.8683 13.1495 25 12.8315 25 12.5C25 12.1685 24.8683 11.8505 24.6339 11.6161C24.3995 11.3817 24.0815 11.25 23.75 11.25ZM20 11.25C19.6685 11.25 19.3505 11.3817 19.1161 11.6161C18.8817 11.8505 18.75 12.1685 18.75 12.5C18.75 12.8315 18.8817 13.1495 19.1161 13.3839C19.3505 13.6183 19.6685 13.75 20 13.75C20.3315 13.75 20.6495 13.6183 20.8839 13.3839C21.1183 13.1495 21.25 12.8315 21.25 12.5C21.25 12.1685 21.1183 11.8505 20.8839 11.6161C20.6495 11.3817 20.3315 11.25 20 11.25ZM16.25 11.25C15.9185 11.25 15.6005 11.3817 15.3661 11.6161C15.1317 11.8505 15 12.1685 15 12.5C15 12.8315 15.1317 13.1495 15.3661 13.3839C15.6005 13.6183 15.9185 13.75 16.25 13.75C16.5815 13.75 16.8995 13.6183 17.1339 13.3839C17.3683 13.1495 17.5 12.8315 17.5 12.5C17.5 12.1685 17.3683 11.8505 17.1339 11.6161C16.8995 11.3817 16.5815 11.25 16.25 11.25ZM12.5 11.25C12.1685 11.25 11.8505 11.3817 11.6161 11.6161C11.3817 11.8505 11.25 12.1685 11.25 12.5C11.25 12.8315 11.3817 13.1495 11.6161 13.3839C11.8505 13.6183 12.1685 13.75 12.5 13.75C12.8315 13.75 13.1495 13.6183 13.3839 13.3839C13.6183 13.1495 13.75 12.8315 13.75 12.5C13.75 12.1685 13.6183 11.8505 13.3839 11.6161C13.1495 11.3817 12.8315 11.25 12.5 11.25ZM8.75 11.25C8.4185 11.25 8.10053 11.3817 7.86612 11.6161C7.6317 11.8505 7.5 12.1685 7.5 12.5C7.5 12.8315 7.6317 13.1495 7.86612 13.3839C8.10053 13.6183 8.4185 13.75 8.75 13.75C9.0815 13.75 9.3995 13.6183 9.63392 13.3839C9.86833 13.1495 10 12.8315 10 12.5C10 12.1685 9.86833 11.8505 9.63392 11.6161C9.3995 11.3817 9.0815 11.25 8.75 11.25ZM5 11.25C4.66848 11.25 4.35053 11.3817 4.11612 11.6161C3.8817 11.8505 3.75 12.1685 3.75 12.5C3.75 12.8315 3.8817 13.1495 4.11612 13.3839C4.35053 13.6183 4.66848 13.75 5 13.75C5.33152 13.75 5.64947 13.6183 5.88388 13.3839C6.1183 13.1495 6.25 12.8315 6.25 12.5C6.25 12.1685 6.1183 11.8505 5.88388 11.6161C5.64947 11.3817 5.33152 11.25 5 11.25ZM5 15C4.66848 15 4.35053 15.1317 4.11612 15.3661C3.8817 15.6005 3.75 15.9185 3.75 16.25C3.75 16.5815 3.8817 16.8995 4.11612 17.1339C4.35053 17.3683 4.66848 17.5 5 17.5C5.33152 17.5 5.64947 17.3683 5.88388 17.1339C6.1183 16.8995 6.25 16.5815 6.25 16.25C6.25 15.9185 6.1183 15.6005 5.88388 15.3661C5.64947 15.1317 5.33152 15 5 15ZM5 18.75C4.66848 18.75 4.35053 18.8817 4.11612 19.1161C3.8817 19.3505 3.75 19.6685 3.75 20C3.75 20.3315 3.8817 20.6495 4.11612 20.8839C4.35053 21.1183 4.66848 21.25 5 21.25C5.33152 21.25 5.64947 21.1183 5.88388 20.8839C6.1183 20.6495 6.25 20.3315 6.25 20C6.25 19.6685 6.1183 19.3505 5.88388 19.1161C5.64947 18.8817 5.33152 18.75 5 18.75ZM5 22.5C4.66848 22.5 4.35053 22.6317 4.11612 22.8661C3.8817 23.1005 3.75 23.4185 3.75 23.75C3.75 24.0815 3.8817 24.3995 4.11612 24.6339C4.35053 24.8683 4.66848 25 5 25C5.33152 25 5.64947 24.8683 5.88388 24.6339C6.1183 24.3995 6.25 24.0815 6.25 23.75C6.25 23.4185 6.1183 23.1005 5.88388 22.8661C5.64947 22.6317 5.33152 22.5 5 22.5ZM5 26.25C4.66848 26.25 4.35053 26.3817 4.11612 26.6161C3.8817 26.8505 3.75 27.1685 3.75 27.5C3.75 27.8315 3.8817 28.1495 4.11612 28.3839C4.35053 28.6183 4.66848 28.75 5 28.75C5.33152 28.75 5.64947 28.6183 5.88388 28.3839C6.1183 28.1495 6.25 27.8315 6.25 27.5C6.25 27.1685 6.1183 26.8505 5.88388 26.6161C5.64947 26.3817 5.33152 26.25 5 26.25ZM35 3.75C34.6685 3.75 34.3505 3.8817 34.1161 4.11612C33.8817 4.35053 33.75 4.66848 33.75 5C33.75 5.33152 33.8817 5.64947 34.1161 5.88388C34.3505 6.1183 34.6685 6.25 35 6.25C35.3315 6.25 35.6495 6.1183 35.8839 5.88388C36.1183 5.64947 36.25 5.33152 36.25 5C36.25 4.66848 36.1183 4.35053 35.8839 4.11612C35.6495 3.8817 35.3315 3.75 35 3.75ZM35 7.5C34.6685 7.5 34.3505 7.6317 34.1161 7.86612C33.8817 8.10053 33.75 8.4185 33.75 8.75C33.75 9.0815 33.8817 9.3995 34.1161 9.63392C34.3505 9.86833 34.6685 10 35 10C35.3315 10 35.6495 9.86833 35.8839 9.63392C36.1183 9.3995 36.25 9.0815 36.25 8.75C36.25 8.4185 36.1183 8.10053 35.8839 7.86612C35.6495 7.6317 35.3315 7.5 35 7.5ZM35 11.25C34.6685 11.25 34.3505 11.3817 34.1161 11.6161C33.8817 11.8505 33.75 12.1685 33.75 12.5C33.75 12.8315 33.8817 13.1495 34.1161 13.3839C34.3505 13.6183 34.6685 13.75 35 13.75C35.3315 13.75 35.6495 13.6183 35.8839 13.3839C36.1183 13.1495 36.25 12.8315 36.25 12.5C36.25 12.1685 36.1183 11.8505 35.8839 11.6161C35.6495 11.3817 35.3315 11.25 35 11.25ZM35 15C34.6685 15 34.3505 15.1317 34.1161 15.3661C33.8817 15.6005 33.75 15.9185 33.75 16.25C33.75 16.5815 33.8817 16.8995 34.1161 17.1339C34.3505 17.3683 34.6685 17.5 35 17.5C35.3315 17.5 35.6495 17.3683 35.8839 17.1339C36.1183 16.8995 36.25 16.5815 36.25 16.25C36.25 15.9185 36.1183 15.6005 35.8839 15.3661C35.6495 15.1317 35.3315 15 35 15ZM35 18.75C34.6685 18.75 34.3505 18.8817 34.1161 19.1161C33.8817 19.3505 33.75 19.6685 33.75 20C33.75 20.3315 33.8817 20.6495 34.1161 20.8839C34.3505 21.1183 34.6685 21.25 35 21.25C35.3315 21.25 35.6495 21.1183 35.8839 20.8839C36.1183 20.6495 36.25 20.3315 36.25 20C36.25 19.6685 36.1183 19.3505 35.8839 19.1161C35.6495 18.8817 35.3315 18.75 35 18.75ZM35 22.5C34.6685 22.5 34.3505 22.6317 34.1161 22.8661C33.8817 23.1005 33.75 23.4185 33.75 23.75C33.75 24.0815 33.8817 24.3995 34.1161 24.6339C34.3505 24.8683 34.6685 25 35 25C35.3315 25 35.6495 24.8683 35.8839 24.6339C36.1183 24.3995 36.25 24.0815 36.25 23.75C36.25 23.4185 36.1183 23.1005 35.8839 22.8661C35.6495 22.6317 35.3315 22.5 35 22.5ZM35 26.25C34.6685 26.25 34.3505 26.3817 34.1161 26.6161C33.8817 26.8505 33.75 27.1685 33.75 27.5C33.75 27.8315 33.8817 28.1495 34.1161 28.3839C34.3505 28.6183 34.6685 28.75 35 28.75C35.3315 28.75 35.6495 28.6183 35.8839 28.3839C36.1183 28.1495 36.25 27.8315 36.25 27.5C36.25 27.1685 36.1183 26.8505 35.8839 26.6161C35.6495 26.3817 35.3315 26.25 35 26.25ZM35 30C34.6685 30 34.3505 30.1317 34.1161 30.3661C33.8817 30.6005 33.75 30.9185 33.75 31.25C33.75 31.5815 33.8817 31.8995 34.1161 32.1339C34.3505 32.3683 34.6685 32.5 35 32.5C35.3315 32.5 35.6495 32.3683 35.8839 32.1339C36.1183 31.8995 36.25 31.5815 36.25 31.25C36.25 30.9185 36.1183 30.6005 35.8839 30.3661C35.6495 30.1317 35.3315 30 35 30ZM5 30C4.66848 30 4.35053 30.1317 4.11612 30.3661C3.8817 30.6005 3.75 30.9185 3.75 31.25C3.75 31.5815 3.8817 31.8995 4.11612 32.1339C4.35053 32.3683 4.66848 32.5 5 32.5C5.33152 32.5 5.64947 32.3683 5.88388 32.1339C6.1183 31.8995 6.25 31.5815 6.25 31.25C6.25 30.9185 6.1183 30.6005 5.88388 30.3661C5.64947 30.1317 5.33152 30 5 30ZM31.25 33.75C30.9185 33.75 30.6005 33.8817 30.3661 34.1161C30.1317 34.3505 30 34.6685 30 35C30 35.3315 30.1317 35.6495 30.3661 35.8839C30.6005 36.1183 30.9185 36.25 31.25 36.25C31.5815 36.25 31.8995 36.1183 32.1339 35.8839C32.3683 35.6495 32.5 35.3315 32.5 35C32.5 34.6685 32.3683 34.3505 32.1339 34.1161C31.8995 33.8817 31.5815 33.75 31.25 33.75ZM35 33.75C34.6685 33.75 34.3505 33.8817 34.1161 34.1161C33.8817 34.3505 33.75 34.6685 33.75 35C33.75 35.3315 33.8817 35.6495 34.1161 35.8839C34.3505 36.1183 34.6685 36.25 35 36.25C35.3315 36.25 35.6495 36.1183 35.8839 35.8839C36.1183 35.6495 36.25 35.3315 36.25 35C36.25 34.6685 36.1183 34.3505 35.8839 34.1161C35.6495 33.8817 35.3315 33.75 35 33.75ZM27.5 33.75C27.1685 33.75 26.8505 33.8817 26.6161 34.1161C26.3817 34.3505 26.25 34.6685 26.25 35C26.25 35.3315 26.3817 35.6495 26.6161 35.8839C26.8505 36.1183 27.1685 36.25 27.5 36.25C27.8315 36.25 28.1495 36.1183 28.3839 35.8839C28.6183 35.6495 28.75 35.3315 28.75 35C28.75 34.6685 28.6183 34.3505 28.3839 34.1161C28.1495 33.8817 27.8315 33.75 27.5 33.75ZM27.5 18.75C27.1685 18.75 26.8505 18.8817 26.6161 19.1161C26.3817 19.3505 26.25 19.6685 26.25 20C26.25 20.3315 26.3817 20.6495 26.6161 20.8839C26.8505 21.1183 27.1685 21.25 27.5 21.25C27.8315 21.25 28.1495 21.1183 28.3839 20.8839C28.6183 20.6495 28.75 20.3315 28.75 20C28.75 19.6685 28.6183 19.3505 28.3839 19.1161C28.1495 18.8817 27.8315 18.75 27.5 18.75ZM20 18.75C19.6685 18.75 19.3505 18.8817 19.1161 19.1161C18.8817 19.3505 18.75 19.6685 18.75 20C18.75 20.3315 18.8817 20.6495 19.1161 20.8839C19.3505 21.1183 19.6685 21.25 20 21.25C20.3315 21.25 20.6495 21.1183 20.8839 20.8839C21.1183 20.6495 21.25 20.3315 21.25 20C21.25 19.6685 21.1183 19.3505 20.8839 19.1161C20.6495 18.8817 20.3315 18.75 20 18.75ZM16.25 18.75C15.9185 18.75 15.6005 18.8817 15.3661 19.1161C15.1317 19.3505 15 19.6685 15 20C15 20.3315 15.1317 20.6495 15.3661 20.8839C15.6005 21.1183 15.9185 21.25 16.25 21.25C16.5815 21.25 16.8995 21.1183 17.1339 20.8839C17.3683 20.6495 17.5 20.3315 17.5 20C17.5 19.6685 17.3683 19.3505 17.1339 19.1161C16.8995 18.8817 16.5815 18.75 16.25 18.75ZM20 26.25C19.6685 26.25 19.3505 26.3817 19.1161 26.6161C18.8817 26.8505 18.75 27.1685 18.75 27.5C18.75 27.8315 18.8817 28.1495 19.1161 28.3839C19.3505 28.6183 19.6685 28.75 20 28.75C20.3315 28.75 20.6495 28.6183 20.8839 28.3839C21.1183 28.1495 21.25 27.8315 21.25 27.5C21.25 27.1685 21.1183 26.8505 20.8839 26.6161C20.6495 26.3817 20.3315 26.25 20 26.25ZM12.5 26.25C12.1685 26.25 11.8505 26.3817 11.6161 26.6161C11.3817 26.8505 11.25 27.1685 11.25 27.5C11.25 27.8315 11.3817 28.1495 11.6161 28.3839C11.8505 28.6183 12.1685 28.75 12.5 28.75C12.8315 28.75 13.1495 28.6183 13.3839 28.3839C13.6183 28.1495 13.75 27.8315 13.75 27.5C13.75 27.1685 13.6183 26.8505 13.3839 26.6161C13.1495 26.3817 12.8315 26.25 12.5 26.25ZM12.5 22.5C12.1685 22.5 11.8505 22.6317 11.6161 22.8661C11.3817 23.1005 11.25 23.4185 11.25 23.75C11.25 24.0815 11.3817 24.3995 11.6161 24.6339C11.8505 24.8683 12.1685 25 12.5 25C12.8315 25 13.1495 24.8683 13.3839 24.6339C13.6183 24.3995 13.75 24.0815 13.75 23.75C13.75 23.4185 13.6183 23.1005 13.3839 22.8661C13.1495 22.6317 12.8315 22.5 12.5 22.5ZM16.25 26.25C15.9185 26.25 15.6005 26.3817 15.3661 26.6161C15.1317 26.8505 15 27.1685 15 27.5C15 27.8315 15.1317 28.1495 15.3661 28.3839C15.6005 28.6183 15.9185 28.75 16.25 28.75C16.5815 28.75 16.8995 28.6183 17.1339 28.3839C17.3683 28.1495 17.5 27.8315 17.5 27.5C17.5 27.1685 17.3683 26.8505 17.1339 26.6161C16.8995 26.3817 16.5815 26.25 16.25 26.25ZM23.75 33.75C23.4185 33.75 23.1005 33.8817 22.8661 34.1161C22.6317 34.3505 22.5 34.6685 22.5 35C22.5 35.3315 22.6317 35.6495 22.8661 35.8839C23.1005 36.1183 23.4185 36.25 23.75 36.25C24.0815 36.25 24.3995 36.1183 24.6339 35.8839C24.8683 35.6495 25 35.3315 25 35C25 34.6685 24.8683 34.3505 24.6339 34.1161C24.3995 33.8817 24.0815 33.75 23.75 33.75ZM23.75 26.25C23.4185 26.25 23.1005 26.3817 22.8661 26.6161C22.6317 26.8505 22.5 27.1685 22.5 27.5C22.5 27.8315 22.6317 28.1495 22.8661 28.3839C23.1005 28.6183 23.4185 28.75 23.75 28.75C24.0815 28.75 24.3995 28.6183 24.6339 28.3839C24.8683 28.1495 25 27.8315 25 27.5C25 27.1685 24.8683 26.8505 24.6339 26.6161C24.3995 26.3817 24.0815 26.25 23.75 26.25ZM27.5 22.5C27.1685 22.5 26.8505 22.6317 26.6161 22.8661C26.3817 23.1005 26.25 23.4185 26.25 23.75C26.25 24.0815 26.3817 24.3995 26.6161 24.6339C26.8505 24.8683 27.1685 25 27.5 25C27.8315 25 28.1495 24.8683 28.3839 24.6339C28.6183 24.3995 28.75 24.0815 28.75 23.75C28.75 23.4185 28.6183 23.1005 28.3839 22.8661C28.1495 22.6317 27.8315 22.5 27.5 22.5ZM20 22.5C19.6685 22.5 19.3505 22.6317 19.1161 22.8661C18.8817 23.1005 18.75 23.4185 18.75 23.75C18.75 24.0815 18.8817 24.3995 19.1161 24.6339C19.3505 24.8683 19.6685 25 20 25C20.3315 25 20.6495 24.8683 20.8839 24.6339C21.1183 24.3995 21.25 24.0815 21.25 23.75C21.25 23.4185 21.1183 23.1005 20.8839 22.8661C20.6495 22.6317 20.3315 22.5 20 22.5ZM16.25 22.5C15.9185 22.5 15.6005 22.6317 15.3661 22.8661C15.1317 23.1005 15 23.4185 15 23.75C15 24.0815 15.1317 24.3995 15.3661 24.6339C15.6005 24.8683 15.9185 25 16.25 25C16.5815 25 16.8995 24.8683 17.1339 24.6339C17.3683 24.3995 17.5 24.0815 17.5 23.75C17.5 23.4185 17.3683 23.1005 17.1339 22.8661C16.8995 22.6317 16.5815 22.5 16.25 22.5ZM23.75 22.5C23.4185 22.5 23.1005 22.6317 22.8661 22.8661C22.6317 23.1005 22.5 23.4185 22.5 23.75C22.5 24.0815 22.6317 24.3995 22.8661 24.6339C23.1005 24.8683 23.4185 25 23.75 25C24.0815 25 24.3995 24.8683 24.6339 24.6339C24.8683 24.3995 25 24.0815 25 23.75C25 23.4185 24.8683 23.1005 24.6339 22.8661C24.3995 22.6317 24.0815 22.5 23.75 22.5ZM23.75 18.75C23.4185 18.75 23.1005 18.8817 22.8661 19.1161C22.6317 19.3505 22.5 19.6685 22.5 20C22.5 20.3315 22.6317 20.6495 22.8661 20.8839C23.1005 21.1183 23.4185 21.25 23.75 21.25C24.0815 21.25 24.3995 21.1183 24.6339 20.8839C24.8683 20.6495 25 20.3315 25 20C25 19.6685 24.8683 19.3505 24.6339 19.1161C24.3995 18.8817 24.0815 18.75 23.75 18.75ZM20 33.75C19.6685 33.75 19.3505 33.8817 19.1161 34.1161C18.8817 34.3505 18.75 34.6685 18.75 35C18.75 35.3315 18.8817 35.6495 19.1161 35.8839C19.3505 36.1183 19.6685 36.25 20 36.25C20.3315 36.25 20.6495 36.1183 20.8839 35.8839C21.1183 35.6495 21.25 35.3315 21.25 35C21.25 34.6685 21.1183 34.3505 20.8839 34.1161C20.6495 33.8817 20.3315 33.75 20 33.75ZM16.25 33.75C15.9185 33.75 15.6005 33.8817 15.3661 34.1161C15.1317 34.3505 15 34.6685 15 35C15 35.3315 15.1317 35.6495 15.3661 35.8839C15.6005 36.1183 15.9185 36.25 16.25 36.25C16.5815 36.25 16.8995 36.1183 17.1339 35.8839C17.3683 35.6495 17.5 35.3315 17.5 35C17.5 34.6685 17.3683 34.3505 17.1339 34.1161C16.8995 33.8817 16.5815 33.75 16.25 33.75ZM12.5 33.75C12.1685 33.75 11.8505 33.8817 11.6161 34.1161C11.3817 34.3505 11.25 34.6685 11.25 35C11.25 35.3315 11.3817 35.6495 11.6161 35.8839C11.8505 36.1183 12.1685 36.25 12.5 36.25C12.8315 36.25 13.1495 36.1183 13.3839 35.8839C13.6183 35.6495 13.75 35.3315 13.75 35C13.75 34.6685 13.6183 34.3505 13.3839 34.1161C13.1495 33.8817 12.8315 33.75 12.5 33.75ZM8.75 33.75C8.4185 33.75 8.10053 33.8817 7.86612 34.1161C7.6317 34.3505 7.5 34.6685 7.5 35C7.5 35.3315 7.6317 35.6495 7.86612 35.8839C8.10053 36.1183 8.4185 36.25 8.75 36.25C9.0815 36.25 9.3995 36.1183 9.63392 35.8839C9.86833 35.6495 10 35.3315 10 35C10 34.6685 9.86833 34.3505 9.63392 34.1161C9.3995 33.8817 9.0815 33.75 8.75 33.75ZM5 33.75C4.66848 33.75 4.35053 33.8817 4.11612 34.1161C3.8817 34.3505 3.75 34.6685 3.75 35C3.75 35.3315 3.8817 35.6495 4.11612 35.8839C4.35053 36.1183 4.66848 36.25 5 36.25C5.33152 36.25 5.64947 36.1183 5.88388 35.8839C6.1183 35.6495 6.25 35.3315 6.25 35C6.25 34.6685 6.1183 34.3505 5.88388 34.1161C5.64947 33.8817 5.33152 33.75 5 33.75Z" fill="#599C12"></path>
        </g>
      </g>
    </g>
  </g>
  <defs>
    <clipPath id="clip0_669_1176">
      <rect width="40" height="40" fill="white"></rect>
    </clipPath>
  </defs>
</svg>
