<?xml version="1.0" encoding="UTF-8"?>
<svg xmlns="http://www.w3.org/2000/svg" width="40" height="40" viewBox="0 0 40 40" fill="none">
  <path d="M3.275 12.35C3.97917 12.35 4.55 11.7792 4.55 11.075C4.55 10.3709 3.97917 9.80005 3.275 9.80005C2.57083 9.80005 2 10.3709 2 11.075C2 11.7792 2.57083 12.35 3.275 12.35Z" fill="#599C12"></path>
  <path d="M3.275 16.6C3.97917 16.6 4.55 16.0292 4.55 15.325C4.55 14.6209 3.97917 14.05 3.275 14.05C2.57083 14.05 2 14.6209 2 15.325C2 16.0292 2.57083 16.6 3.275 16.6Z" fill="#599C12"></path>
  <path d="M37.275 16.6003C37.9792 16.6003 38.55 16.0294 38.55 15.3253C38.55 14.6212 37.9792 14.0503 37.275 14.0503C36.5708 14.0503 36 14.6212 36 15.3253C36 16.0294 36.5708 16.6003 37.275 16.6003Z" fill="#599C12"></path>
  <path d="M33.025 28.5007C33.7292 28.5007 34.3 27.9298 34.3 27.2257C34.3 26.5215 33.7292 25.9507 33.025 25.9507C32.3208 25.9507 31.75 26.5215 31.75 27.2257C31.75 27.9298 32.3208 28.5007 33.025 28.5007Z" fill="#599C12"></path>
  <path d="M33.025 32.7507C33.7292 32.7507 34.3 32.1798 34.3 31.4757C34.3 30.7715 33.7292 30.2007 33.025 30.2007C32.3208 30.2007 31.75 30.7715 31.75 31.4757C31.75 32.1798 32.3208 32.7507 33.025 32.7507Z" fill="#599C12"></path>
  <path d="M7.525 28.5004C8.22917 28.5004 8.8 27.9296 8.8 27.2254C8.8 26.5213 8.22917 25.9504 7.525 25.9504C6.82083 25.9504 6.25 26.5213 6.25 27.2254C6.25 27.9296 6.82083 28.5004 7.525 28.5004Z" fill="#599C12"></path>
  <path d="M7.525 32.7507C8.22917 32.7507 8.8 32.1798 8.8 31.4757C8.8 30.7715 8.22917 30.2007 7.525 30.2007C6.82083 30.2007 6.25 30.7715 6.25 31.4757C6.25 32.1798 6.82083 32.7507 7.525 32.7507Z" fill="#599C12"></path>
  <path d="M3.275 20.8503C3.97917 20.8503 4.55 20.2794 4.55 19.5753C4.55 18.8712 3.97917 18.3003 3.275 18.3003C2.57083 18.3003 2 18.8712 2 19.5753C2 20.2794 2.57083 20.8503 3.275 20.8503Z" fill="#599C12"></path>
  <path d="M37.275 20.8503C37.9792 20.8503 38.55 20.2794 38.55 19.5753C38.55 18.8712 37.9792 18.3003 37.275 18.3003C36.5708 18.3003 36 18.8712 36 19.5753C36 20.2794 36.5708 20.8503 37.275 20.8503Z" fill="#599C12"></path>
  <path d="M33.025 37.0007C33.7292 37.0007 34.3 36.4298 34.3 35.7257C34.3 35.0215 33.7292 34.4507 33.025 34.4507C32.3208 34.4507 31.75 35.0215 31.75 35.7257C31.75 36.4298 32.3208 37.0007 33.025 37.0007Z" fill="#599C12"></path>
  <path d="M7.525 37.0007C8.22917 37.0007 8.8 36.4298 8.8 35.7257C8.8 35.0215 8.22917 34.4507 7.525 34.4507C6.82083 34.4507 6.25 35.0215 6.25 35.7257C6.25 36.4298 6.82083 37.0007 7.525 37.0007Z" fill="#599C12"></path>
  <path d="M3.275 24.2504C3.97917 24.2504 4.55 23.6796 4.55 22.9754C4.55 22.2713 3.97917 21.7004 3.275 21.7004C2.57083 21.7004 2 22.2713 2 22.9754C2 23.6796 2.57083 24.2504 3.275 24.2504Z" fill="#599C12"></path>
  <path d="M7.525 12.35C8.22914 12.35 8.8 11.7792 8.8 11.075C8.8 10.3709 8.22914 9.80005 7.525 9.80005C6.82083 9.80005 6.25 10.3709 6.25 11.075C6.25 11.7792 6.82083 12.35 7.525 12.35Z" fill="#599C12"></path>
  <path d="M7.525 24.2504C8.22914 24.2504 8.8 23.6796 8.8 22.9754C8.8 22.2713 8.22914 21.7004 7.525 21.7004C6.82083 21.7004 6.25 22.2713 6.25 22.9754C6.25 23.6796 6.82083 24.2504 7.525 24.2504Z" fill="#599C12"></path>
  <path d="M11.775 12.35C12.4791 12.35 13.05 11.7792 13.05 11.075C13.05 10.3709 12.4791 9.80005 11.775 9.80005C11.0709 9.80005 10.5 10.3709 10.5 11.075C10.5 11.7792 11.0709 12.35 11.775 12.35Z" fill="#599C12"></path>
  <path d="M11.775 24.2504C12.4791 24.2504 13.05 23.6796 13.05 22.9754C13.05 22.2713 12.4791 21.7004 11.775 21.7004C11.0709 21.7004 10.5 22.2713 10.5 22.9754C10.5 23.6796 11.0709 24.2504 11.775 24.2504Z" fill="#599C12"></path>
  <path d="M11.775 37.0007C12.4791 37.0007 13.05 36.4298 13.05 35.7257C13.05 35.0215 12.4791 34.4507 11.775 34.4507C11.0709 34.4507 10.5 35.0215 10.5 35.7257C10.5 36.4298 11.0709 37.0007 11.775 37.0007Z" fill="#599C12"></path>
  <path d="M16.025 12.3503C16.7291 12.3503 17.3 11.7794 17.3 11.0753C17.3 10.3712 16.7291 9.80029 16.025 9.80029C15.3209 9.80029 14.75 10.3712 14.75 11.0753C14.75 11.7794 15.3209 12.3503 16.025 12.3503Z" fill="#599C12"></path>
  <path d="M16.025 8.10029C16.7291 8.10029 17.3 7.52943 17.3 6.82529C17.3 6.12115 16.7291 5.55029 16.025 5.55029C15.3209 5.55029 14.75 6.12115 14.75 6.82529C14.75 7.52943 15.3209 8.10029 16.025 8.10029Z" fill="#599C12"></path>
  <path d="M24.525 8.10029C25.2291 8.10029 25.8 7.52943 25.8 6.82529C25.8 6.12115 25.2291 5.55029 24.525 5.55029C23.8209 5.55029 23.25 6.12115 23.25 6.82529C23.25 7.52943 23.8209 8.10029 24.525 8.10029Z" fill="#599C12"></path>
  <path d="M16.025 24.2502C16.7291 24.2502 17.3 23.6793 17.3 22.9752C17.3 22.2711 16.7291 21.7002 16.025 21.7002C15.3209 21.7002 14.75 22.2711 14.75 22.9752C14.75 23.6793 15.3209 24.2502 16.025 24.2502Z" fill="#599C12"></path>
  <path d="M16.025 37.0007C16.7291 37.0007 17.3 36.4298 17.3 35.7257C17.3 35.0215 16.7291 34.4507 16.025 34.4507C15.3209 34.4507 14.75 35.0215 14.75 35.7257C14.75 36.4298 15.3209 37.0007 16.025 37.0007Z" fill="#599C12"></path>
  <path d="M20.275 12.3503C20.9791 12.3503 21.55 11.7794 21.55 11.0753C21.55 10.3712 20.9791 9.80029 20.275 9.80029C19.5709 9.80029 19 10.3712 19 11.0753C19 11.7794 19.5709 12.3503 20.275 12.3503Z" fill="#599C12"></path>
  <path d="M20.275 5.55C20.9791 5.55 21.55 4.97914 21.55 4.275C21.55 3.57086 20.9791 3 20.275 3C19.5709 3 19 3.57086 19 4.275C19 4.97914 19.5709 5.55 20.275 5.55Z" fill="#599C12"></path>
  <path d="M16.025 28.5007C16.7291 28.5007 17.3 27.9298 17.3 27.2257C17.3 26.5215 16.7291 25.9507 16.025 25.9507C15.3209 25.9507 14.75 26.5215 14.75 27.2257C14.75 27.9298 15.3209 28.5007 16.025 28.5007Z" fill="#599C12"></path>
  <path d="M20.275 20.0002C20.9791 20.0002 21.55 19.4293 21.55 18.7252C21.55 18.0211 20.9791 17.4502 20.275 17.4502C19.5709 17.4502 19 18.0211 19 18.7252C19 19.4293 19.5709 20.0002 20.275 20.0002Z" fill="#599C12"></path>
  <path d="M20.275 28.5007C20.9791 28.5007 21.55 27.9298 21.55 27.2257C21.55 26.5215 20.9791 25.9507 20.275 25.9507C19.5709 25.9507 19 26.5215 19 27.2257C19 27.9298 19.5709 28.5007 20.275 28.5007Z" fill="#599C12"></path>
  <path d="M20.275 37.0007C20.9791 37.0007 21.55 36.4298 21.55 35.7257C21.55 35.0215 20.9791 34.4507 20.275 34.4507C19.5709 34.4507 19 35.0215 19 35.7257C19 36.4298 19.5709 37.0007 20.275 37.0007Z" fill="#599C12"></path>
  <path d="M24.525 20.0002C25.2291 20.0002 25.8 19.4293 25.8 18.7252C25.8 18.0211 25.2291 17.4502 24.525 17.4502C23.8209 17.4502 23.25 18.0211 23.25 18.7252C23.25 19.4293 23.8209 20.0002 24.525 20.0002Z" fill="#599C12"></path>
  <path d="M24.525 28.5007C25.2291 28.5007 25.8 27.9298 25.8 27.2257C25.8 26.5215 25.2291 25.9507 24.525 25.9507C23.8209 25.9507 23.25 26.5215 23.25 27.2257C23.25 27.9298 23.8209 28.5007 24.525 28.5007Z" fill="#599C12"></path>
  <path d="M16.025 20.0002C16.7291 20.0002 17.3 19.4293 17.3 18.7252C17.3 18.0211 16.7291 17.4502 16.025 17.4502C15.3209 17.4502 14.75 18.0211 14.75 18.7252C14.75 19.4293 15.3209 20.0002 16.025 20.0002Z" fill="#599C12"></path>
  <path d="M24.525 12.3503C25.2291 12.3503 25.8 11.7794 25.8 11.0753C25.8 10.3712 25.2291 9.80029 24.525 9.80029C23.8209 9.80029 23.25 10.3712 23.25 11.0753C23.25 11.7794 23.8209 12.3503 24.525 12.3503Z" fill="#599C12"></path>
  <path d="M24.525 24.2502C25.2291 24.2502 25.8 23.6793 25.8 22.9752C25.8 22.2711 25.2291 21.7002 24.525 21.7002C23.8209 21.7002 23.25 22.2711 23.25 22.9752C23.25 23.6793 23.8209 24.2502 24.525 24.2502Z" fill="#599C12"></path>
  <path d="M24.525 37.0007C25.2291 37.0007 25.8 36.4298 25.8 35.7257C25.8 35.0215 25.2291 34.4507 24.525 34.4507C23.8209 34.4507 23.25 35.0215 23.25 35.7257C23.25 36.4298 23.8209 37.0007 24.525 37.0007Z" fill="#599C12"></path>
  <path d="M28.775 12.3503C29.4791 12.3503 30.05 11.7794 30.05 11.0753C30.05 10.3712 29.4791 9.80029 28.775 9.80029C28.0709 9.80029 27.5 10.3712 27.5 11.0753C27.5 11.7794 28.0709 12.3503 28.775 12.3503Z" fill="#599C12"></path>
  <path d="M28.775 24.2502C29.4791 24.2502 30.05 23.6793 30.05 22.9752C30.05 22.2711 29.4791 21.7002 28.775 21.7002C28.0709 21.7002 27.5 22.2711 27.5 22.9752C27.5 23.6793 28.0709 24.2502 28.775 24.2502Z" fill="#599C12"></path>
  <path d="M28.775 37.0007C29.4791 37.0007 30.05 36.4298 30.05 35.7257C30.05 35.0215 29.4791 34.4507 28.775 34.4507C28.0709 34.4507 27.5 35.0215 27.5 35.7257C27.5 36.4298 28.0709 37.0007 28.775 37.0007Z" fill="#599C12"></path>
  <path d="M33.025 12.3503C33.7291 12.3503 34.3 11.7794 34.3 11.0753C34.3 10.3712 33.7291 9.80029 33.025 9.80029C32.3209 9.80029 31.75 10.3712 31.75 11.0753C31.75 11.7794 32.3209 12.3503 33.025 12.3503Z" fill="#599C12"></path>
  <path d="M33.025 24.2502C33.7291 24.2502 34.3 23.6793 34.3 22.9752C34.3 22.2711 33.7291 21.7002 33.025 21.7002C32.3209 21.7002 31.75 22.2711 31.75 22.9752C31.75 23.6793 32.3209 24.2502 33.025 24.2502Z" fill="#599C12"></path>
  <path d="M37.275 12.3503C37.9791 12.3503 38.55 11.7794 38.55 11.0753C38.55 10.3712 37.9791 9.80029 37.275 9.80029C36.5709 9.80029 36 10.3712 36 11.0753C36 11.7794 36.5709 12.3503 37.275 12.3503Z" fill="#599C12"></path>
  <path d="M37.275 24.2502C37.9791 24.2502 38.55 23.6793 38.55 22.9752C38.55 22.2711 37.9791 21.7002 37.275 21.7002C36.5709 21.7002 36 22.2711 36 22.9752C36 23.6793 36.5709 24.2502 37.275 24.2502Z" fill="#599C12"></path>
</svg>
