<?xml version="1.0" encoding="UTF-8"?>
<svg xmlns="http://www.w3.org/2000/svg" width="220" height="220" viewBox="0 0 220 220" fill="none">
  <g id="icon-earth">
    <path id="Vector" d="M130.625 20.625C128.802 20.625 127.053 21.3494 125.763 22.6386C124.474 23.9279 123.75 25.6767 123.75 27.5C123.75 29.3233 124.474 31.0721 125.763 32.3614C127.053 33.6507 128.802 34.375 130.625 34.375C132.448 34.375 134.197 33.6507 135.487 32.3614C136.776 31.0721 137.5 29.3233 137.5 27.5C137.5 25.6767 136.776 23.9279 135.487 22.6386C134.197 21.3494 132.448 20.625 130.625 20.625ZM110 20.625C108.177 20.625 106.428 21.3494 105.138 22.6386C103.849 23.9279 103.125 25.6767 103.125 27.5C103.125 29.3233 103.849 31.0721 105.138 32.3614C106.428 33.6507 108.177 34.375 110 34.375C111.823 34.375 113.572 33.6507 114.862 32.3614C116.151 31.0721 116.875 29.3233 116.875 27.5C116.875 25.6767 116.151 23.9279 114.862 22.6386C113.572 21.3494 111.823 20.625 110 20.625ZM89.375 20.625C87.5518 20.625 85.8028 21.3494 84.5135 22.6386C83.2242 23.9279 82.5 25.6767 82.5 27.5C82.5 29.3233 83.2242 31.0721 84.5135 32.3614C85.8028 33.6507 87.5518 34.375 89.375 34.375C91.1982 34.375 92.9473 33.6507 94.2365 32.3614C95.5258 31.0721 96.25 29.3233 96.25 27.5C96.25 25.6767 95.5258 23.9279 94.2365 22.6386C92.9473 21.3494 91.1982 20.625 89.375 20.625ZM171.875 41.25C170.052 41.25 168.303 41.9743 167.013 43.2636C165.724 44.5529 165 46.3018 165 48.125C165 49.9483 165.724 51.6973 167.013 52.9865C168.303 54.2758 170.052 55 171.875 55C173.698 55 175.447 54.2758 176.737 52.9865C178.026 51.6973 178.75 49.9483 178.75 48.125C178.75 46.3018 178.026 44.5529 176.737 43.2636C175.447 41.9743 173.698 41.25 171.875 41.25ZM151.25 41.25C149.427 41.25 147.678 41.9743 146.388 43.2636C145.099 44.5529 144.375 46.3018 144.375 48.125C144.375 49.9483 145.099 51.6973 146.388 52.9865C147.678 54.2758 149.427 55 151.25 55C153.073 55 154.822 54.2758 156.112 52.9865C157.401 51.6973 158.125 49.9483 158.125 48.125C158.125 46.3018 157.401 44.5529 156.112 43.2636C154.822 41.9743 153.073 41.25 151.25 41.25ZM130.625 41.25C128.802 41.25 127.053 41.9743 125.763 43.2636C124.474 44.5529 123.75 46.3018 123.75 48.125C123.75 49.9483 124.474 51.6973 125.763 52.9865C127.053 54.2758 128.802 55 130.625 55C132.448 55 134.197 54.2758 135.487 52.9865C136.776 51.6973 137.5 49.9483 137.5 48.125C137.5 46.3018 136.776 44.5529 135.487 43.2636C134.197 41.9743 132.448 41.25 130.625 41.25ZM110 41.25C108.177 41.25 106.428 41.9743 105.138 43.2636C103.849 44.5529 103.125 46.3018 103.125 48.125C103.125 49.9483 103.849 51.6973 105.138 52.9865C106.428 54.2758 108.177 55 110 55C111.823 55 113.572 54.2758 114.862 52.9865C116.151 51.6973 116.875 49.9483 116.875 48.125C116.875 46.3018 116.151 44.5529 114.862 43.2636C113.572 41.9743 111.823 41.25 110 41.25ZM89.375 41.25C87.5518 41.25 85.8028 41.9743 84.5135 43.2636C83.2242 44.5529 82.5 46.3018 82.5 48.125C82.5 49.9483 83.2242 51.6973 84.5135 52.9865C85.8028 54.2758 87.5518 55 89.375 55C91.1982 55 92.9473 54.2758 94.2365 52.9865C95.5258 51.6973 96.25 49.9483 96.25 48.125C96.25 46.3018 95.5258 44.5529 94.2365 43.2636C92.9473 41.9743 91.1982 41.25 89.375 41.25ZM68.75 41.25C66.9268 41.25 65.1777 41.9743 63.8885 43.2636C62.5992 44.5529 61.875 46.3018 61.875 48.125C61.875 49.9483 62.5992 51.6973 63.8885 52.9865C65.1777 54.2758 66.9268 55 68.75 55C70.5733 55 72.3223 54.2758 73.6115 52.9865C74.9008 51.6973 75.625 49.9483 75.625 48.125C75.625 46.3018 74.9008 44.5529 73.6115 43.2636C72.3223 41.9743 70.5733 41.25 68.75 41.25ZM48.125 41.25C46.3018 41.25 44.5529 41.9743 43.2636 43.2636C41.9743 44.5529 41.25 46.3018 41.25 48.125C41.25 49.9483 41.9743 51.6973 43.2636 52.9865C44.5529 54.2758 46.3018 55 48.125 55C49.9483 55 51.6973 54.2758 52.9865 52.9865C54.2758 51.6973 55 49.9483 55 48.125C55 46.3018 54.2758 44.5529 52.9865 43.2636C51.6973 41.9743 49.9483 41.25 48.125 41.25ZM171.875 61.875C170.052 61.875 168.303 62.5992 167.013 63.8885C165.724 65.1777 165 66.9268 165 68.75C165 70.5733 165.724 72.3223 167.013 73.6115C168.303 74.9008 170.052 75.625 171.875 75.625C173.698 75.625 175.447 74.9008 176.737 73.6115C178.026 72.3223 178.75 70.5733 178.75 68.75C178.75 66.9268 178.026 65.1777 176.737 63.8885C175.447 62.5992 173.698 61.875 171.875 61.875ZM130.625 61.875C128.802 61.875 127.053 62.5992 125.763 63.8885C124.474 65.1777 123.75 66.9268 123.75 68.75C123.75 70.5733 124.474 72.3223 125.763 73.6115C127.053 74.9008 128.802 75.625 130.625 75.625C132.448 75.625 134.197 74.9008 135.487 73.6115C136.776 72.3223 137.5 70.5733 137.5 68.75C137.5 66.9268 136.776 65.1777 135.487 63.8885C134.197 62.5992 132.448 61.875 130.625 61.875ZM110 61.875C108.177 61.875 106.428 62.5992 105.138 63.8885C103.849 65.1777 103.125 66.9268 103.125 68.75C103.125 70.5733 103.849 72.3223 105.138 73.6115C106.428 74.9008 108.177 75.625 110 75.625C111.823 75.625 113.572 74.9008 114.862 73.6115C116.151 72.3223 116.875 70.5733 116.875 68.75C116.875 66.9268 116.151 65.1777 114.862 63.8885C113.572 62.5992 111.823 61.875 110 61.875ZM48.125 61.875C46.3018 61.875 44.5529 62.5992 43.2636 63.8885C41.9743 65.1777 41.25 66.9268 41.25 68.75C41.25 70.5733 41.9743 72.3223 43.2636 73.6115C44.5529 74.9008 46.3018 75.625 48.125 75.625C49.9483 75.625 51.6973 74.9008 52.9865 73.6115C54.2758 72.3223 55 70.5733 55 68.75C55 66.9268 54.2758 65.1777 52.9865 63.8885C51.6973 62.5992 49.9483 61.875 48.125 61.875ZM171.875 82.5C170.052 82.5 168.303 83.2242 167.013 84.5135C165.724 85.8028 165 87.5518 165 89.375C165 91.1982 165.724 92.9473 167.013 94.2365C168.303 95.5258 170.052 96.25 171.875 96.25C173.698 96.25 175.447 95.5258 176.737 94.2365C178.026 92.9473 178.75 91.1982 178.75 89.375C178.75 87.5518 178.026 85.8028 176.737 84.5135C175.447 83.2242 173.698 82.5 171.875 82.5ZM110 82.5C108.177 82.5 106.428 83.2242 105.138 84.5135C103.849 85.8028 103.125 87.5518 103.125 89.375C103.125 91.1982 103.849 92.9473 105.138 94.2365C106.428 95.5258 108.177 96.25 110 96.25C111.823 96.25 113.572 95.5258 114.862 94.2365C116.151 92.9473 116.875 91.1982 116.875 89.375C116.875 87.5518 116.151 85.8028 114.862 84.5135C113.572 83.2242 111.823 82.5 110 82.5ZM89.375 82.5C87.5518 82.5 85.8028 83.2242 84.5135 84.5135C83.2242 85.8028 82.5 87.5518 82.5 89.375C82.5 91.1982 83.2242 92.9473 84.5135 94.2365C85.8028 95.5258 87.5518 96.25 89.375 96.25C91.1982 96.25 92.9473 95.5258 94.2365 94.2365C95.5258 92.9473 96.25 91.1982 96.25 89.375C96.25 87.5518 95.5258 85.8028 94.2365 84.5135C92.9473 83.2242 91.1982 82.5 89.375 82.5ZM27.5 82.5C25.6767 82.5 23.9279 83.2242 22.6386 84.5135C21.3494 85.8028 20.625 87.5518 20.625 89.375C20.625 91.1982 21.3494 92.9473 22.6386 94.2365C23.9279 95.5258 25.6767 96.25 27.5 96.25C29.3233 96.25 31.0721 95.5258 32.3614 94.2365C33.6507 92.9473 34.375 91.1982 34.375 89.375C34.375 87.5518 33.6507 85.8028 32.3614 84.5135C31.0721 83.2242 29.3233 82.5 27.5 82.5ZM110 103.125C108.177 103.125 106.428 103.849 105.138 105.138C103.849 106.428 103.125 108.177 103.125 110C103.125 111.823 103.849 113.572 105.138 114.862C106.428 116.151 108.177 116.875 110 116.875C111.823 116.875 113.572 116.151 114.862 114.862C116.151 113.572 116.875 111.823 116.875 110C116.875 108.177 116.151 106.428 114.862 105.138C113.572 103.849 111.823 103.125 110 103.125ZM130.625 103.125C128.802 103.125 127.053 103.849 125.763 105.138C124.474 106.428 123.75 108.177 123.75 110C123.75 111.823 124.474 113.572 125.763 114.862C127.053 116.151 128.802 116.875 130.625 116.875C132.448 116.875 134.197 116.151 135.487 114.862C136.776 113.572 137.5 111.823 137.5 110C137.5 108.177 136.776 106.428 135.487 105.138C134.197 103.849 132.448 103.125 130.625 103.125ZM89.375 103.125C87.5518 103.125 85.8028 103.849 84.5135 105.138C83.2242 106.428 82.5 108.177 82.5 110C82.5 111.823 83.2242 113.572 84.5135 114.862C85.8028 116.151 87.5518 116.875 89.375 116.875C91.1982 116.875 92.9473 116.151 94.2365 114.862C95.5258 113.572 96.25 111.823 96.25 110C96.25 108.177 95.5258 106.428 94.2365 105.138C92.9473 103.849 91.1982 103.125 89.375 103.125ZM48.125 103.125C46.3018 103.125 44.5529 103.849 43.2636 105.138C41.9743 106.428 41.25 108.177 41.25 110C41.25 111.823 41.9743 113.572 43.2636 114.862C44.5529 116.151 46.3018 116.875 48.125 116.875C49.9483 116.875 51.6973 116.151 52.9865 114.862C54.2758 113.572 55 111.823 55 110C55 108.177 54.2758 106.428 52.9865 105.138C51.6973 103.849 49.9483 103.125 48.125 103.125ZM27.5 103.125C25.6767 103.125 23.9279 103.849 22.6386 105.138C21.3494 106.428 20.625 108.177 20.625 110C20.625 111.823 21.3494 113.572 22.6386 114.862C23.9279 116.151 25.6767 116.875 27.5 116.875C29.3233 116.875 31.0721 116.151 32.3614 114.862C33.6507 113.572 34.375 111.823 34.375 110C34.375 108.177 33.6507 106.428 32.3614 105.138C31.0721 103.849 29.3233 103.125 27.5 103.125ZM171.875 123.75C170.052 123.75 168.303 124.474 167.013 125.763C165.724 127.053 165 128.802 165 130.625C165 132.448 165.724 134.197 167.013 135.487C168.303 136.776 170.052 137.5 171.875 137.5C173.698 137.5 175.447 136.776 176.737 135.487C178.026 134.197 178.75 132.448 178.75 130.625C178.75 128.802 178.026 127.053 176.737 125.763C175.447 124.474 173.698 123.75 171.875 123.75ZM130.625 123.75C128.802 123.75 127.053 124.474 125.763 125.763C124.474 127.053 123.75 128.802 123.75 130.625C123.75 132.448 124.474 134.197 125.763 135.487C127.053 136.776 128.802 137.5 130.625 137.5C132.448 137.5 134.197 136.776 135.487 135.487C136.776 134.197 137.5 132.448 137.5 130.625C137.5 128.802 136.776 127.053 135.487 125.763C134.197 124.474 132.448 123.75 130.625 123.75ZM110 123.75C108.177 123.75 106.428 124.474 105.138 125.763C103.849 127.053 103.125 128.802 103.125 130.625C103.125 132.448 103.849 134.197 105.138 135.487C106.428 136.776 108.177 137.5 110 137.5C111.823 137.5 113.572 136.776 114.862 135.487C116.151 134.197 116.875 132.448 116.875 130.625C116.875 128.802 116.151 127.053 114.862 125.763C113.572 124.474 111.823 123.75 110 123.75ZM89.375 123.75C87.5518 123.75 85.8028 124.474 84.5135 125.763C83.2242 127.053 82.5 128.802 82.5 130.625C82.5 132.448 83.2242 134.197 84.5135 135.487C85.8028 136.776 87.5518 137.5 89.375 137.5C91.1982 137.5 92.9473 136.776 94.2365 135.487C95.5258 134.197 96.25 132.448 96.25 130.625C96.25 128.802 95.5258 127.053 94.2365 125.763C92.9473 124.474 91.1982 123.75 89.375 123.75ZM68.75 123.75C66.9268 123.75 65.1777 124.474 63.8885 125.763C62.5992 127.053 61.875 128.802 61.875 130.625C61.875 132.448 62.5992 134.197 63.8885 135.487C65.1777 136.776 66.9268 137.5 68.75 137.5C70.5733 137.5 72.3223 136.776 73.6115 135.487C74.9008 134.197 75.625 132.448 75.625 130.625C75.625 128.802 74.9008 127.053 73.6115 125.763C72.3223 124.474 70.5733 123.75 68.75 123.75ZM48.125 123.75C46.3018 123.75 44.5529 124.474 43.2636 125.763C41.9743 127.053 41.25 128.802 41.25 130.625C41.25 132.448 41.9743 134.197 43.2636 135.487C44.5529 136.776 46.3018 137.5 48.125 137.5C49.9483 137.5 51.6973 136.776 52.9865 135.487C54.2758 134.197 55 132.448 55 130.625C55 128.802 54.2758 127.053 52.9865 125.763C51.6973 124.474 49.9483 123.75 48.125 123.75ZM27.5 123.75C25.6767 123.75 23.9279 124.474 22.6386 125.763C21.3494 127.053 20.625 128.802 20.625 130.625C20.625 132.448 21.3494 134.197 22.6386 135.487C23.9279 136.776 25.6767 137.5 27.5 137.5C29.3233 137.5 31.0721 136.776 32.3614 135.487C33.6507 134.197 34.375 132.448 34.375 130.625C34.375 128.802 33.6507 127.053 32.3614 125.763C31.0721 124.474 29.3233 123.75 27.5 123.75ZM171.875 144.375C170.052 144.375 168.303 145.099 167.013 146.388C165.724 147.678 165 149.427 165 151.25C165 153.073 165.724 154.822 167.013 156.112C168.303 157.401 170.052 158.125 171.875 158.125C173.698 158.125 175.447 157.401 176.737 156.112C178.026 154.822 178.75 153.073 178.75 151.25C178.75 149.427 178.026 147.678 176.737 146.388C175.447 145.099 173.698 144.375 171.875 144.375ZM110 144.375C108.177 144.375 106.428 145.099 105.138 146.388C103.849 147.678 103.125 149.427 103.125 151.25C103.125 153.073 103.849 154.822 105.138 156.112C106.428 157.401 108.177 158.125 110 158.125C111.823 158.125 113.572 157.401 114.862 156.112C116.151 154.822 116.875 153.073 116.875 151.25C116.875 149.427 116.151 147.678 114.862 146.388C113.572 145.099 111.823 144.375 110 144.375ZM89.375 144.375C87.5518 144.375 85.8028 145.099 84.5135 146.388C83.2242 147.678 82.5 149.427 82.5 151.25C82.5 153.073 83.2242 154.822 84.5135 156.112C85.8028 157.401 87.5518 158.125 89.375 158.125C91.1982 158.125 92.9473 157.401 94.2365 156.112C95.5258 154.822 96.25 153.073 96.25 151.25C96.25 149.427 95.5258 147.678 94.2365 146.388C92.9473 145.099 91.1982 144.375 89.375 144.375ZM48.125 165C46.3018 165 44.5529 165.724 43.2636 167.013C41.9743 168.303 41.25 170.052 41.25 171.875C41.25 173.698 41.9743 175.447 43.2636 176.737C44.5529 178.026 46.3018 178.75 48.125 178.75C49.9483 178.75 51.6973 178.026 52.9865 176.737C54.2758 175.447 55 173.698 55 171.875C55 170.052 54.2758 168.303 52.9865 167.013C51.6973 165.724 49.9483 165 48.125 165ZM48.125 144.375C46.3018 144.375 44.5529 145.099 43.2636 146.388C41.9743 147.678 41.25 149.427 41.25 151.25C41.25 153.073 41.9743 154.822 43.2636 156.112C44.5529 157.401 46.3018 158.125 48.125 158.125C49.9483 158.125 51.6973 157.401 52.9865 156.112C54.2758 154.822 55 153.073 55 151.25C55 149.427 54.2758 147.678 52.9865 146.388C51.6973 145.099 49.9483 144.375 48.125 144.375ZM171.875 165C170.052 165 168.303 165.724 167.013 167.013C165.724 168.303 165 170.052 165 171.875C165 173.698 165.724 175.447 167.013 176.737C168.303 178.026 170.052 178.75 171.875 178.75C173.698 178.75 175.447 178.026 176.737 176.737C178.026 175.447 178.75 173.698 178.75 171.875C178.75 170.052 178.026 168.303 176.737 167.013C175.447 165.724 173.698 165 171.875 165ZM192.5 82.5C190.677 82.5 188.928 83.2242 187.638 84.5135C186.349 85.8028 185.625 87.5518 185.625 89.375C185.625 91.1982 186.349 92.9473 187.638 94.2365C188.928 95.5258 190.677 96.25 192.5 96.25C194.323 96.25 196.072 95.5258 197.362 94.2365C198.651 92.9473 199.375 91.1982 199.375 89.375C199.375 87.5518 198.651 85.8028 197.362 84.5135C196.072 83.2242 194.323 82.5 192.5 82.5ZM192.5 103.125C190.677 103.125 188.928 103.849 187.638 105.138C186.349 106.428 185.625 108.177 185.625 110C185.625 111.823 186.349 113.572 187.638 114.862C188.928 116.151 190.677 116.875 192.5 116.875C194.323 116.875 196.072 116.151 197.362 114.862C198.651 113.572 199.375 111.823 199.375 110C199.375 108.177 198.651 106.428 197.362 105.138C196.072 103.849 194.323 103.125 192.5 103.125ZM192.5 123.75C190.677 123.75 188.928 124.474 187.638 125.763C186.349 127.053 185.625 128.802 185.625 130.625C185.625 132.448 186.349 134.197 187.638 135.487C188.928 136.776 190.677 137.5 192.5 137.5C194.323 137.5 196.072 136.776 197.362 135.487C198.651 134.197 199.375 132.448 199.375 130.625C199.375 128.802 198.651 127.053 197.362 125.763C196.072 124.474 194.323 123.75 192.5 123.75ZM151.25 165C149.427 165 147.678 165.724 146.388 167.013C145.099 168.303 144.375 170.052 144.375 171.875C144.375 173.698 145.099 175.447 146.388 176.737C147.678 178.026 149.427 178.75 151.25 178.75C153.073 178.75 154.822 178.026 156.112 176.737C157.401 175.447 158.125 173.698 158.125 171.875C158.125 170.052 157.401 168.303 156.112 167.013C154.822 165.724 153.073 165 151.25 165ZM130.625 165C128.802 165 127.053 165.724 125.763 167.013C124.474 168.303 123.75 170.052 123.75 171.875C123.75 173.698 124.474 175.447 125.763 176.737C127.053 178.026 128.802 178.75 130.625 178.75C132.448 178.75 134.197 178.026 135.487 176.737C136.776 175.447 137.5 173.698 137.5 171.875C137.5 170.052 136.776 168.303 135.487 167.013C134.197 165.724 132.448 165 130.625 165ZM110 165C108.177 165 106.428 165.724 105.138 167.013C103.849 168.303 103.125 170.052 103.125 171.875C103.125 173.698 103.849 175.447 105.138 176.737C106.428 178.026 108.177 178.75 110 178.75C111.823 178.75 113.572 178.026 114.862 176.737C116.151 175.447 116.875 173.698 116.875 171.875C116.875 170.052 116.151 168.303 114.862 167.013C113.572 165.724 111.823 165 110 165ZM89.375 165C87.5518 165 85.8028 165.724 84.5135 167.013C83.2242 168.303 82.5 170.052 82.5 171.875C82.5 173.698 83.2242 175.447 84.5135 176.737C85.8028 178.026 87.5518 178.75 89.375 178.75C91.1982 178.75 92.9473 178.026 94.2365 176.737C95.5258 175.447 96.25 173.698 96.25 171.875C96.25 170.052 95.5258 168.303 94.2365 167.013C92.9473 165.724 91.1982 165 89.375 165ZM68.75 165C66.9268 165 65.1777 165.724 63.8885 167.013C62.5992 168.303 61.875 170.052 61.875 171.875C61.875 173.698 62.5992 175.447 63.8885 176.737C65.1777 178.026 66.9268 178.75 68.75 178.75C70.5733 178.75 72.3223 178.026 73.6115 176.737C74.9008 175.447 75.625 173.698 75.625 171.875C75.625 170.052 74.9008 168.303 73.6115 167.013C72.3223 165.724 70.5733 165 68.75 165ZM130.625 185.625C128.802 185.625 127.053 186.349 125.763 187.638C124.474 188.928 123.75 190.677 123.75 192.5C123.75 194.323 124.474 196.072 125.763 197.362C127.053 198.651 128.802 199.375 130.625 199.375C132.448 199.375 134.197 198.651 135.487 197.362C136.776 196.072 137.5 194.323 137.5 192.5C137.5 190.677 136.776 188.928 135.487 187.638C134.197 186.349 132.448 185.625 130.625 185.625ZM110 185.625C108.177 185.625 106.428 186.349 105.138 187.638C103.849 188.928 103.125 190.677 103.125 192.5C103.125 194.323 103.849 196.072 105.138 197.362C106.428 198.651 108.177 199.375 110 199.375C111.823 199.375 113.572 198.651 114.862 197.362C116.151 196.072 116.875 194.323 116.875 192.5C116.875 190.677 116.151 188.928 114.862 187.638C113.572 186.349 111.823 185.625 110 185.625ZM89.375 185.625C87.5518 185.625 85.8028 186.349 84.5135 187.638C83.2242 188.928 82.5 190.677 82.5 192.5C82.5 194.323 83.2242 196.072 84.5135 197.362C85.8028 198.651 87.5518 199.375 89.375 199.375C91.1982 199.375 92.9473 198.651 94.2365 197.362C95.5258 196.072 96.25 194.323 96.25 192.5C96.25 190.677 95.5258 188.928 94.2365 187.638C92.9473 186.349 91.1982 185.625 89.375 185.625Z" fill="#FCFCFC"></path>
  </g>
</svg>
