<?xml version="1.0" encoding="UTF-8"?>
<svg xmlns="http://www.w3.org/2000/svg" width="40" height="40" viewBox="0 0 40 40" fill="none">
  <path d="M16.25 6.25C16.9403 6.25 17.5 5.69036 17.5 5C17.5 4.30964 16.9403 3.75 16.25 3.75C15.5597 3.75 15 4.30964 15 5C15 5.69036 15.5597 6.25 16.25 6.25Z" fill="#599C12"></path>
  <path d="M20 6.25C20.6903 6.25 21.25 5.69036 21.25 5C21.25 4.30964 20.6903 3.75 20 3.75C19.3097 3.75 18.75 4.30964 18.75 5C18.75 5.69036 19.3097 6.25 20 6.25Z" fill="#599C12"></path>
  <path d="M23.75 6.25C24.4403 6.25 25 5.69036 25 5C25 4.30964 24.4403 3.75 23.75 3.75C23.0597 3.75 22.5 4.30964 22.5 5C22.5 5.69036 23.0597 6.25 23.75 6.25Z" fill="#599C12"></path>
  <path d="M8.75 10C9.44033 10 10 9.44033 10 8.75C10 8.05964 9.44033 7.5 8.75 7.5C8.05964 7.5 7.5 8.05964 7.5 8.75C7.5 9.44033 8.05964 10 8.75 10Z" fill="#599C12"></path>
  <path d="M12.5 6.25C13.1903 6.25 13.75 5.69036 13.75 5C13.75 4.30964 13.1903 3.75 12.5 3.75C11.8097 3.75 11.25 4.30964 11.25 5C11.25 5.69036 11.8097 6.25 12.5 6.25Z" fill="#599C12"></path>
  <path d="M31.25 10C31.9403 10 32.5 9.44033 32.5 8.75C32.5 8.05964 31.9403 7.5 31.25 7.5C30.5597 7.5 30 8.05964 30 8.75C30 9.44033 30.5597 10 31.25 10Z" fill="#599C12"></path>
  <path d="M27.5 6.25C28.1903 6.25 28.75 5.69036 28.75 5C28.75 4.30964 28.1903 3.75 27.5 3.75C26.8097 3.75 26.25 4.30964 26.25 5C26.25 5.69036 26.8097 6.25 27.5 6.25Z" fill="#599C12"></path>
  <path d="M5 13.75C5.69036 13.75 6.25 13.1903 6.25 12.5C6.25 11.8097 5.69036 11.25 5 11.25C4.30964 11.25 3.75 11.8097 3.75 12.5C3.75 13.1903 4.30964 13.75 5 13.75Z" fill="#599C12"></path>
  <path d="M35 13.75C35.6903 13.75 36.25 13.1903 36.25 12.5C36.25 11.8097 35.6903 11.25 35 11.25C34.3097 11.25 33.75 11.8097 33.75 12.5C33.75 13.1903 34.3097 13.75 35 13.75Z" fill="#599C12"></path>
  <path d="M31.25 13.75C31.9403 13.75 32.5 13.1903 32.5 12.5C32.5 11.8097 31.9403 11.25 31.25 11.25C30.5597 11.25 30 11.8097 30 12.5C30 13.1903 30.5597 13.75 31.25 13.75Z" fill="#599C12"></path>
  <path d="M27.5 13.75C28.1903 13.75 28.75 13.1903 28.75 12.5C28.75 11.8097 28.1903 11.25 27.5 11.25C26.8097 11.25 26.25 11.8097 26.25 12.5C26.25 13.1903 26.8097 13.75 27.5 13.75Z" fill="#599C12"></path>
  <path d="M35 10C35.6903 10 36.25 9.44033 36.25 8.75C36.25 8.05964 35.6903 7.5 35 7.5C34.3097 7.5 33.75 8.05964 33.75 8.75C33.75 9.44033 34.3097 10 35 10Z" fill="#599C12"></path>
  <path d="M35 6.25C35.6903 6.25 36.25 5.69036 36.25 5C36.25 4.30964 35.6903 3.75 35 3.75C34.3097 3.75 33.75 4.30964 33.75 5C33.75 5.69036 34.3097 6.25 35 6.25Z" fill="#599C12"></path>
  <path d="M35 21.25C35.6903 21.25 36.25 20.6903 36.25 20C36.25 19.3097 35.6903 18.75 35 18.75C34.3097 18.75 33.75 19.3097 33.75 20C33.75 20.6903 34.3097 21.25 35 21.25Z" fill="#599C12"></path>
  <path d="M35 25C35.6903 25 36.25 24.4403 36.25 23.75C36.25 23.0597 35.6903 22.5 35 22.5C34.3097 22.5 33.75 23.0597 33.75 23.75C33.75 24.4403 34.3097 25 35 25Z" fill="#599C12"></path>
  <path d="M31.25 32.5C31.9403 32.5 32.5 31.9403 32.5 31.25C32.5 30.5597 31.9403 30 31.25 30C30.5597 30 30 30.5597 30 31.25C30 31.9403 30.5597 32.5 31.25 32.5Z" fill="#599C12"></path>
  <path d="M35 28.75C35.6903 28.75 36.25 28.1903 36.25 27.5C36.25 26.8097 35.6903 26.25 35 26.25C34.3097 26.25 33.75 26.8097 33.75 27.5C33.75 28.1903 34.3097 28.75 35 28.75Z" fill="#599C12"></path>
  <path d="M8.75 32.5C9.44033 32.5 10 31.9403 10 31.25C10 30.5597 9.44033 30 8.75 30C8.05964 30 7.5 30.5597 7.5 31.25C7.5 31.9403 8.05964 32.5 8.75 32.5Z" fill="#599C12"></path>
  <path d="M5 17.5C5.69036 17.5 6.25 16.9403 6.25 16.25C6.25 15.5597 5.69036 15 5 15C4.30964 15 3.75 15.5597 3.75 16.25C3.75 16.9403 4.30964 17.5 5 17.5Z" fill="#599C12"></path>
  <path d="M5 21.25C5.69036 21.25 6.25 20.6903 6.25 20C6.25 19.3097 5.69036 18.75 5 18.75C4.30964 18.75 3.75 19.3097 3.75 20C3.75 20.6903 4.30964 21.25 5 21.25Z" fill="#599C12"></path>
  <path d="M5 25C5.69036 25 6.25 24.4403 6.25 23.75C6.25 23.0597 5.69036 22.5 5 22.5C4.30964 22.5 3.75 23.0597 3.75 23.75C3.75 24.4403 4.30964 25 5 25Z" fill="#599C12"></path>
  <path d="M5 28.75C5.69036 28.75 6.25 28.1903 6.25 27.5C6.25 26.8097 5.69036 26.25 5 26.25C4.30964 26.25 3.75 26.8097 3.75 27.5C3.75 28.1903 4.30964 28.75 5 28.75Z" fill="#599C12"></path>
  <path d="M12.5 36.25C13.1903 36.25 13.75 35.6903 13.75 35C13.75 34.3097 13.1903 33.75 12.5 33.75C11.8097 33.75 11.25 34.3097 11.25 35C11.25 35.6903 11.8097 36.25 12.5 36.25Z" fill="#599C12"></path>
  <path d="M27.5 36.25C28.1903 36.25 28.75 35.6903 28.75 35C28.75 34.3097 28.1903 33.75 27.5 33.75C26.8097 33.75 26.25 34.3097 26.25 35C26.25 35.6903 26.8097 36.25 27.5 36.25Z" fill="#599C12"></path>
  <path d="M16.25 36.25C16.9403 36.25 17.5 35.6903 17.5 35C17.5 34.3097 16.9403 33.75 16.25 33.75C15.5597 33.75 15 34.3097 15 35C15 35.6903 15.5597 36.25 16.25 36.25Z" fill="#599C12"></path>
  <path d="M20 36.25C20.6903 36.25 21.25 35.6903 21.25 35C21.25 34.3097 20.6903 33.75 20 33.75C19.3097 33.75 18.75 34.3097 18.75 35C18.75 35.6903 19.3097 36.25 20 36.25Z" fill="#599C12"></path>
  <path d="M20 17.5C20.6903 17.5 21.25 16.9403 21.25 16.25C21.25 15.5597 20.6903 15 20 15C19.3097 15 18.75 15.5597 18.75 16.25C18.75 16.9403 19.3097 17.5 20 17.5Z" fill="#599C12"></path>
  <path d="M20 21.25C20.6903 21.25 21.25 20.6903 21.25 20C21.25 19.3097 20.6903 18.75 20 18.75C19.3097 18.75 18.75 19.3097 18.75 20C18.75 20.6903 19.3097 21.25 20 21.25Z" fill="#599C12"></path>
  <path d="M23.75 21.25C24.4403 21.25 25 20.6903 25 20C25 19.3097 24.4403 18.75 23.75 18.75C23.0597 18.75 22.5 19.3097 22.5 20C22.5 20.6903 23.0597 21.25 23.75 21.25Z" fill="#599C12"></path>
  <path d="M27.5 21.25C28.1903 21.25 28.75 20.6903 28.75 20C28.75 19.3097 28.1903 18.75 27.5 18.75C26.8097 18.75 26.25 19.3097 26.25 20C26.25 20.6903 26.8097 21.25 27.5 21.25Z" fill="#599C12"></path>
  <path d="M20 13.75C20.6903 13.75 21.25 13.1903 21.25 12.5C21.25 11.8097 20.6903 11.25 20 11.25C19.3097 11.25 18.75 11.8097 18.75 12.5C18.75 13.1903 19.3097 13.75 20 13.75Z" fill="#599C12"></path>
  <path d="M23.75 36.25C24.4403 36.25 25 35.6903 25 35C25 34.3097 24.4403 33.75 23.75 33.75C23.0597 33.75 22.5 34.3097 22.5 35C22.5 35.6903 23.0597 36.25 23.75 36.25Z" fill="#599C12"></path>
</svg>
