<svg width="40" height="40" viewBox="0 0 40 40" fill="none" xmlns="http://www.w3.org/2000/svg">
<path d="M24 4C23.6685 4 23.3505 4.1317 23.1161 4.36612C22.8817 4.60053 22.75 4.91848 22.75 5.25C22.75 5.58152 22.8817 5.89947 23.1161 6.13388C23.3505 6.3683 23.6685 6.5 24 6.5C24.3315 6.5 24.6495 6.3683 24.8839 6.13388C25.1183 5.89947 25.25 5.58152 25.25 5.25C25.25 4.91848 25.1183 4.60053 24.8839 4.36612C24.6495 4.1317 24.3315 4 24 4ZM20.25 4C19.9185 4 19.6005 4.1317 19.3661 4.36612C19.1317 4.60053 19 4.91848 19 5.25C19 5.58152 19.1317 5.89947 19.3661 6.13388C19.6005 6.3683 19.9185 6.5 20.25 6.5C20.5815 6.5 20.8995 6.3683 21.1339 6.13388C21.3683 5.89947 21.5 5.58152 21.5 5.25C21.5 4.91848 21.3683 4.60053 21.1339 4.36612C20.8995 4.1317 20.5815 4 20.25 4ZM16.5 4C16.1685 4 15.8505 4.1317 15.6161 4.36612C15.3817 4.60053 15.25 4.91848 15.25 5.25C15.25 5.58152 15.3817 5.89947 15.6161 6.13388C15.8505 6.3683 16.1685 6.5 16.5 6.5C16.8315 6.5 17.1495 6.3683 17.3839 6.13388C17.6183 5.89947 17.75 5.58152 17.75 5.25C17.75 4.91848 17.6183 4.60053 17.3839 4.36612C17.1495 4.1317 16.8315 4 16.5 4ZM12.75 4C12.4185 4 12.1005 4.1317 11.8661 4.36612C11.6317 4.60053 11.5 4.91848 11.5 5.25C11.5 5.58152 11.6317 5.89947 11.8661 6.13388C12.1005 6.3683 12.4185 6.5 12.75 6.5C13.0815 6.5 13.3995 6.3683 13.6339 6.13388C13.8683 5.89947 14 5.58152 14 5.25C14 4.91848 13.8683 4.60053 13.6339 4.36612C13.3995 4.1317 13.0815 4 12.75 4ZM9 4C8.6685 4 8.3505 4.1317 8.11608 4.36612C7.88167 4.60053 7.75 4.91848 7.75 5.25C7.75 5.58152 7.88167 5.89947 8.11608 6.13388C8.3505 6.3683 8.6685 6.5 9 6.5C9.3315 6.5 9.6495 6.3683 9.88392 6.13388C10.1183 5.89947 10.25 5.58152 10.25 5.25C10.25 4.91848 10.1183 4.60053 9.88392 4.36612C9.6495 4.1317 9.3315 4 9 4ZM24 7.75C23.6685 7.75 23.3505 7.8817 23.1161 8.11612C22.8817 8.35053 22.75 8.6685 22.75 9C22.75 9.3315 22.8817 9.6495 23.1161 9.88392C23.3505 10.1183 23.6685 10.25 24 10.25C24.3315 10.25 24.6495 10.1183 24.8839 9.88392C25.1183 9.6495 25.25 9.3315 25.25 9C25.25 8.6685 25.1183 8.35053 24.8839 8.11612C24.6495 7.8817 24.3315 7.75 24 7.75ZM20.25 15.25C19.9185 15.25 19.6005 15.3817 19.3661 15.6161C19.1317 15.8505 19 16.1685 19 16.5C19 16.8315 19.1317 17.1495 19.3661 17.3839C19.6005 17.6183 19.9185 17.75 20.25 17.75C20.5815 17.75 20.8995 17.6183 21.1339 17.3839C21.3683 17.1495 21.5 16.8315 21.5 16.5C21.5 16.1685 21.3683 15.8505 21.1339 15.6161C20.8995 15.3817 20.5815 15.25 20.25 15.25ZM16.5 15.25C16.1685 15.25 15.8505 15.3817 15.6161 15.6161C15.3817 15.8505 15.25 16.1685 15.25 16.5C15.25 16.8315 15.3817 17.1495 15.6161 17.3839C15.8505 17.6183 16.1685 17.75 16.5 17.75C16.8315 17.75 17.1495 17.6183 17.3839 17.3839C17.6183 17.1495 17.75 16.8315 17.75 16.5C17.75 16.1685 17.6183 15.8505 17.3839 15.6161C17.1495 15.3817 16.8315 15.25 16.5 15.25ZM12.75 15.25C12.4185 15.25 12.1005 15.3817 11.8661 15.6161C11.6317 15.8505 11.5 16.1685 11.5 16.5C11.5 16.8315 11.6317 17.1495 11.8661 17.3839C12.1005 17.6183 12.4185 17.75 12.75 17.75C13.0815 17.75 13.3995 17.6183 13.6339 17.3839C13.8683 17.1495 14 16.8315 14 16.5C14 16.1685 13.8683 15.8505 13.6339 15.6161C13.3995 15.3817 13.0815 15.25 12.75 15.25ZM9 7.75C8.6685 7.75 8.3505 7.8817 8.11608 8.11612C7.88167 8.35053 7.75 8.6685 7.75 9C7.75 9.3315 7.88167 9.6495 8.11608 9.88392C8.3505 10.1183 8.6685 10.25 9 10.25C9.3315 10.25 9.6495 10.1183 9.88392 9.88392C10.1183 9.6495 10.25 9.3315 10.25 9C10.25 8.6685 10.1183 8.35053 9.88392 8.11612C9.6495 7.8817 9.3315 7.75 9 7.75ZM24 11.5C23.6685 11.5 23.3505 11.6317 23.1161 11.8661C22.8817 12.1005 22.75 12.4185 22.75 12.75C22.75 13.0815 22.8817 13.3995 23.1161 13.6339C23.3505 13.8683 23.6685 14 24 14C24.3315 14 24.6495 13.8683 24.8839 13.6339C25.1183 13.3995 25.25 13.0815 25.25 12.75C25.25 12.4185 25.1183 12.1005 24.8839 11.8661C24.6495 11.6317 24.3315 11.5 24 11.5ZM9 11.5C8.6685 11.5 8.3505 11.6317 8.11608 11.8661C7.88167 12.1005 7.75 12.4185 7.75 12.75C7.75 13.0815 7.88167 13.3995 8.11608 13.6339C8.3505 13.8683 8.6685 14 9 14C9.3315 14 9.6495 13.8683 9.88392 13.6339C10.1183 13.3995 10.25 13.0815 10.25 12.75C10.25 12.4185 10.1183 12.1005 9.88392 11.8661C9.6495 11.6317 9.3315 11.5 9 11.5ZM24 15.25C23.6685 15.25 23.3505 15.3817 23.1161 15.6161C22.8817 15.8505 22.75 16.1685 22.75 16.5C22.75 16.8315 22.8817 17.1495 23.1161 17.3839C23.3505 17.6183 23.6685 17.75 24 17.75C24.3315 17.75 24.6495 17.6183 24.8839 17.3839C25.1183 17.1495 25.25 16.8315 25.25 16.5C25.25 16.1685 25.1183 15.8505 24.8839 15.6161C24.6495 15.3817 24.3315 15.25 24 15.25ZM9 15.25C8.6685 15.25 8.3505 15.3817 8.11608 15.6161C7.88167 15.8505 7.75 16.1685 7.75 16.5C7.75 16.8315 7.88167 17.1495 8.11608 17.3839C8.3505 17.6183 8.6685 17.75 9 17.75C9.3315 17.75 9.6495 17.6183 9.88392 17.3839C10.1183 17.1495 10.25 16.8315 10.25 16.5C10.25 16.1685 10.1183 15.8505 9.88392 15.6161C9.6495 15.3817 9.3315 15.25 9 15.25ZM24 19C23.6685 19 23.3505 19.1317 23.1161 19.3661C22.8817 19.6005 22.75 19.9185 22.75 20.25C22.75 20.5815 22.8817 20.8995 23.1161 21.1339C23.3505 21.3683 23.6685 21.5 24 21.5C24.3315 21.5 24.6495 21.3683 24.8839 21.1339C25.1183 20.8995 25.25 20.5815 25.25 20.25C25.25 19.9185 25.1183 19.6005 24.8839 19.3661C24.6495 19.1317 24.3315 19 24 19ZM20.25 19C19.9185 19 19.6005 19.1317 19.3661 19.3661C19.1317 19.6005 19 19.9185 19 20.25C19 20.5815 19.1317 20.8995 19.3661 21.1339C19.6005 21.3683 19.9185 21.5 20.25 21.5C20.5815 21.5 20.8995 21.3683 21.1339 21.1339C21.3683 20.8995 21.5 20.5815 21.5 20.25C21.5 19.9185 21.3683 19.6005 21.1339 19.3661C20.8995 19.1317 20.5815 19 20.25 19ZM16.5 19C16.1685 19 15.8505 19.1317 15.6161 19.3661C15.3817 19.6005 15.25 19.9185 15.25 20.25C15.25 20.5815 15.3817 20.8995 15.6161 21.1339C15.8505 21.3683 16.1685 21.5 16.5 21.5C16.8315 21.5 17.1495 21.3683 17.3839 21.1339C17.6183 20.8995 17.75 20.5815 17.75 20.25C17.75 19.9185 17.6183 19.6005 17.3839 19.3661C17.1495 19.1317 16.8315 19 16.5 19ZM12.75 19C12.4185 19 12.1005 19.1317 11.8661 19.3661C11.6317 19.6005 11.5 19.9185 11.5 20.25C11.5 20.5815 11.6317 20.8995 11.8661 21.1339C12.1005 21.3683 12.4185 21.5 12.75 21.5C13.0815 21.5 13.3995 21.3683 13.6339 21.1339C13.8683 20.8995 14 20.5815 14 20.25C14 19.9185 13.8683 19.6005 13.6339 19.3661C13.3995 19.1317 13.0815 19 12.75 19ZM9 19C8.6685 19 8.3505 19.1317 8.11608 19.3661C7.88167 19.6005 7.75 19.9185 7.75 20.25C7.75 20.5815 7.88167 20.8995 8.11608 21.1339C8.3505 21.3683 8.6685 21.5 9 21.5C9.3315 21.5 9.6495 21.3683 9.88392 21.1339C10.1183 20.8995 10.25 20.5815 10.25 20.25C10.25 19.9185 10.1183 19.6005 9.88392 19.3661C9.6495 19.1317 9.3315 19 9 19ZM24 22.75C23.6685 22.75 23.3505 22.8817 23.1161 23.1161C22.8817 23.3505 22.75 23.6685 22.75 24C22.75 24.3315 22.8817 24.6495 23.1161 24.8839C23.3505 25.1183 23.6685 25.25 24 25.25C24.3315 25.25 24.6495 25.1183 24.8839 24.8839C25.1183 24.6495 25.25 24.3315 25.25 24C25.25 23.6685 25.1183 23.3505 24.8839 23.1161C24.6495 22.8817 24.3315 22.75 24 22.75ZM20.25 22.75C19.9185 22.75 19.6005 22.8817 19.3661 23.1161C19.1317 23.3505 19 23.6685 19 24C19 24.3315 19.1317 24.6495 19.3661 24.8839C19.6005 25.1183 19.9185 25.25 20.25 25.25C20.5815 25.25 20.8995 25.1183 21.1339 24.8839C21.3683 24.6495 21.5 24.3315 21.5 24C21.5 23.6685 21.3683 23.3505 21.1339 23.1161C20.8995 22.8817 20.5815 22.75 20.25 22.75ZM16.5 22.75C16.1685 22.75 15.8505 22.8817 15.6161 23.1161C15.3817 23.3505 15.25 23.6685 15.25 24C15.25 24.3315 15.3817 24.6495 15.6161 24.8839C15.8505 25.1183 16.1685 25.25 16.5 25.25C16.8315 25.25 17.1495 25.1183 17.3839 24.8839C17.6183 24.6495 17.75 24.3315 17.75 24C17.75 23.6685 17.6183 23.3505 17.3839 23.1161C17.1495 22.8817 16.8315 22.75 16.5 22.75ZM12.75 22.75C12.4185 22.75 12.1005 22.8817 11.8661 23.1161C11.6317 23.3505 11.5 23.6685 11.5 24C11.5 24.3315 11.6317 24.6495 11.8661 24.8839C12.1005 25.1183 12.4185 25.25 12.75 25.25C13.0815 25.25 13.3995 25.1183 13.6339 24.8839C13.8683 24.6495 14 24.3315 14 24C14 23.6685 13.8683 23.3505 13.6339 23.1161C13.3995 22.8817 13.0815 22.75 12.75 22.75ZM9 22.75C8.6685 22.75 8.3505 22.8817 8.11608 23.1161C7.88167 23.3505 7.75 23.6685 7.75 24C7.75 24.3315 7.88167 24.6495 8.11608 24.8839C8.3505 25.1183 8.6685 25.25 9 25.25C9.3315 25.25 9.6495 25.1183 9.88392 24.8839C10.1183 24.6495 10.25 24.3315 10.25 24C10.25 23.6685 10.1183 23.3505 9.88392 23.1161C9.6495 22.8817 9.3315 22.75 9 22.75ZM24 26.5C23.6685 26.5 23.3505 26.6317 23.1161 26.8661C22.8817 27.1005 22.75 27.4185 22.75 27.75C22.75 28.0815 22.8817 28.3995 23.1161 28.6339C23.3505 28.8683 23.6685 29 24 29C24.3315 29 24.6495 28.8683 24.8839 28.6339C25.1183 28.3995 25.25 28.0815 25.25 27.75C25.25 27.4185 25.1183 27.1005 24.8839 26.8661C24.6495 26.6317 24.3315 26.5 24 26.5ZM27.75 26.5C27.4185 26.5 27.1005 26.6317 26.8661 26.8661C26.6317 27.1005 26.5 27.4185 26.5 27.75C26.5 28.0815 26.6317 28.3995 26.8661 28.6339C27.1005 28.8683 27.4185 29 27.75 29C28.0815 29 28.3995 28.8683 28.6339 28.6339C28.8683 28.3995 29 28.0815 29 27.75C29 27.4185 28.8683 27.1005 28.6339 26.8661C28.3995 26.6317 28.0815 26.5 27.75 26.5ZM31.5 30.25C31.1685 30.25 30.8505 30.3817 30.6161 30.6161C30.3817 30.8505 30.25 31.1685 30.25 31.5C30.25 31.8315 30.3817 32.1495 30.6161 32.3839C30.8505 32.6183 31.1685 32.75 31.5 32.75C31.8315 32.75 32.1495 32.6183 32.3839 32.3839C32.6183 32.1495 32.75 31.8315 32.75 31.5C32.75 31.1685 32.6183 30.8505 32.3839 30.6161C32.1495 30.3817 31.8315 30.25 31.5 30.25ZM35.25 30.25C34.9185 30.25 34.6005 30.3817 34.3661 30.6161C34.1317 30.8505 34 31.1685 34 31.5C34 31.8315 34.1317 32.1495 34.3661 32.3839C34.6005 32.6183 34.9185 32.75 35.25 32.75C35.5815 32.75 35.8995 32.6183 36.1339 32.3839C36.3683 32.1495 36.5 31.8315 36.5 31.5C36.5 31.1685 36.3683 30.8505 36.1339 30.6161C35.8995 30.3817 35.5815 30.25 35.25 30.25ZM35.25 26.5C34.9185 26.5 34.6005 26.6317 34.3661 26.8661C34.1317 27.1005 34 27.4185 34 27.75C34 28.0815 34.1317 28.3995 34.3661 28.6339C34.6005 28.8683 34.9185 29 35.25 29C35.5815 29 35.8995 28.8683 36.1339 28.6339C36.3683 28.3995 36.5 28.0815 36.5 27.75C36.5 27.4185 36.3683 27.1005 36.1339 26.8661C35.8995 26.6317 35.5815 26.5 35.25 26.5ZM35.25 22.75C34.9185 22.75 34.6005 22.8817 34.3661 23.1161C34.1317 23.3505 34 23.6685 34 24C34 24.3315 34.1317 24.6495 34.3661 24.8839C34.6005 25.1183 34.9185 25.25 35.25 25.25C35.5815 25.25 35.8995 25.1183 36.1339 24.8839C36.3683 24.6495 36.5 24.3315 36.5 24C36.5 23.6685 36.3683 23.3505 36.1339 23.1161C35.8995 22.8817 35.5815 22.75 35.25 22.75ZM35.25 19C34.9185 19 34.6005 19.1317 34.3661 19.3661C34.1317 19.6005 34 19.9185 34 20.25C34 20.5815 34.1317 20.8995 34.3661 21.1339C34.6005 21.3683 34.9185 21.5 35.25 21.5C35.5815 21.5 35.8995 21.3683 36.1339 21.1339C36.3683 20.8995 36.5 20.5815 36.5 20.25C36.5 19.9185 36.3683 19.6005 36.1339 19.3661C35.8995 19.1317 35.5815 19 35.25 19ZM31.5 11.5C31.1685 11.5 30.8505 11.6317 30.6161 11.8661C30.3817 12.1005 30.25 12.4185 30.25 12.75C30.25 13.0815 30.3817 13.3995 30.6161 13.6339C30.8505 13.8683 31.1685 14 31.5 14C31.8315 14 32.1495 13.8683 32.3839 13.6339C32.6183 13.3995 32.75 13.0815 32.75 12.75C32.75 12.4185 32.6183 12.1005 32.3839 11.8661C32.1495 11.6317 31.8315 11.5 31.5 11.5ZM27.75 11.5C27.4185 11.5 27.1005 11.6317 26.8661 11.8661C26.6317 12.1005 26.5 12.4185 26.5 12.75C26.5 13.0815 26.6317 13.3995 26.8661 13.6339C27.1005 13.8683 27.4185 14 27.75 14C28.0815 14 28.3995 13.8683 28.6339 13.6339C28.8683 13.3995 29 13.0815 29 12.75C29 12.4185 28.8683 12.1005 28.6339 11.8661C28.3995 11.6317 28.0815 11.5 27.75 11.5ZM31.5 15.25C31.1685 15.25 30.8505 15.3817 30.6161 15.6161C30.3817 15.8505 30.25 16.1685 30.25 16.5C30.25 16.8315 30.3817 17.1495 30.6161 17.3839C30.8505 17.6183 31.1685 17.75 31.5 17.75C31.8315 17.75 32.1495 17.6183 32.3839 17.3839C32.6183 17.1495 32.75 16.8315 32.75 16.5C32.75 16.1685 32.6183 15.8505 32.3839 15.6161C32.1495 15.3817 31.8315 15.25 31.5 15.25ZM35.25 15.25C34.9185 15.25 34.6005 15.3817 34.3661 15.6161C34.1317 15.8505 34 16.1685 34 16.5C34 16.8315 34.1317 17.1495 34.3661 17.3839C34.6005 17.6183 34.9185 17.75 35.25 17.75C35.5815 17.75 35.8995 17.6183 36.1339 17.3839C36.3683 17.1495 36.5 16.8315 36.5 16.5C36.5 16.1685 36.3683 15.8505 36.1339 15.6161C35.8995 15.3817 35.5815 15.25 35.25 15.25ZM35.25 11.5C34.9185 11.5 34.6005 11.6317 34.3661 11.8661C34.1317 12.1005 34 12.4185 34 12.75C34 13.0815 34.1317 13.3995 34.3661 13.6339C34.6005 13.8683 34.9185 14 35.25 14C35.5815 14 35.8995 13.8683 36.1339 13.6339C36.3683 13.3995 36.5 13.0815 36.5 12.75C36.5 12.4185 36.3683 12.1005 36.1339 11.8661C35.8995 11.6317 35.5815 11.5 35.25 11.5ZM20.25 26.5C19.9185 26.5 19.6005 26.6317 19.3661 26.8661C19.1317 27.1005 19 27.4185 19 27.75C19 28.0815 19.1317 28.3995 19.3661 28.6339C19.6005 28.8683 19.9185 29 20.25 29C20.5815 29 20.8995 28.8683 21.1339 28.6339C21.3683 28.3995 21.5 28.0815 21.5 27.75C21.5 27.4185 21.3683 27.1005 21.1339 26.8661C20.8995 26.6317 20.5815 26.5 20.25 26.5ZM16.5 26.5C16.1685 26.5 15.8505 26.6317 15.6161 26.8661C15.3817 27.1005 15.25 27.4185 15.25 27.75C15.25 28.0815 15.3817 28.3995 15.6161 28.6339C15.8505 28.8683 16.1685 29 16.5 29C16.8315 29 17.1495 28.8683 17.3839 28.6339C17.6183 28.3995 17.75 28.0815 17.75 27.75C17.75 27.4185 17.6183 27.1005 17.3839 26.8661C17.1495 26.6317 16.8315 26.5 16.5 26.5ZM12.75 26.5C12.4185 26.5 12.1005 26.6317 11.8661 26.8661C11.6317 27.1005 11.5 27.4185 11.5 27.75C11.5 28.0815 11.6317 28.3995 11.8661 28.6339C12.1005 28.8683 12.4185 29 12.75 29C13.0815 29 13.3995 28.8683 13.6339 28.6339C13.8683 28.3995 14 28.0815 14 27.75C14 27.4185 13.8683 27.1005 13.6339 26.8661C13.3995 26.6317 13.0815 26.5 12.75 26.5ZM9 26.5C8.6685 26.5 8.3505 26.6317 8.11608 26.8661C7.88167 27.1005 7.75 27.4185 7.75 27.75C7.75 28.0815 7.88167 28.3995 8.11608 28.6339C8.3505 28.8683 8.6685 29 9 29C9.3315 29 9.6495 28.8683 9.88392 28.6339C10.1183 28.3995 10.25 28.0815 10.25 27.75C10.25 27.4185 10.1183 27.1005 9.88392 26.8661C9.6495 26.6317 9.3315 26.5 9 26.5ZM24 30.25C23.6685 30.25 23.3505 30.3817 23.1161 30.6161C22.8817 30.8505 22.75 31.1685 22.75 31.5C22.75 31.8315 22.8817 32.1495 23.1161 32.3839C23.3505 32.6183 23.6685 32.75 24 32.75C24.3315 32.75 24.6495 32.6183 24.8839 32.3839C25.1183 32.1495 25.25 31.8315 25.25 31.5C25.25 31.1685 25.1183 30.8505 24.8839 30.6161C24.6495 30.3817 24.3315 30.25 24 30.25ZM20.25 30.25C19.9185 30.25 19.6005 30.3817 19.3661 30.6161C19.1317 30.8505 19 31.1685 19 31.5C19 31.8315 19.1317 32.1495 19.3661 32.3839C19.6005 32.6183 19.9185 32.75 20.25 32.75C20.5815 32.75 20.8995 32.6183 21.1339 32.3839C21.3683 32.1495 21.5 31.8315 21.5 31.5C21.5 31.1685 21.3683 30.8505 21.1339 30.6161C20.8995 30.3817 20.5815 30.25 20.25 30.25ZM16.5 30.25C16.1685 30.25 15.8505 30.3817 15.6161 30.6161C15.3817 30.8505 15.25 31.1685 15.25 31.5C15.25 31.8315 15.3817 32.1495 15.6161 32.3839C15.8505 32.6183 16.1685 32.75 16.5 32.75C16.8315 32.75 17.1495 32.6183 17.3839 32.3839C17.6183 32.1495 17.75 31.8315 17.75 31.5C17.75 31.1685 17.6183 30.8505 17.3839 30.6161C17.1495 30.3817 16.8315 30.25 16.5 30.25ZM12.75 30.25C12.4185 30.25 12.1005 30.3817 11.8661 30.6161C11.6317 30.8505 11.5 31.1685 11.5 31.5C11.5 31.8315 11.6317 32.1495 11.8661 32.3839C12.1005 32.6183 12.4185 32.75 12.75 32.75C13.0815 32.75 13.3995 32.6183 13.6339 32.3839C13.8683 32.1495 14 31.8315 14 31.5C14 31.1685 13.8683 30.8505 13.6339 30.6161C13.3995 30.3817 13.0815 30.25 12.75 30.25ZM9 30.25C8.6685 30.25 8.3505 30.3817 8.11608 30.6161C7.88167 30.8505 7.75 31.1685 7.75 31.5C7.75 31.8315 7.88167 32.1495 8.11608 32.3839C8.3505 32.6183 8.6685 32.75 9 32.75C9.3315 32.75 9.6495 32.6183 9.88392 32.3839C10.1183 32.1495 10.25 31.8315 10.25 31.5C10.25 31.1685 10.1183 30.8505 9.88392 30.6161C9.6495 30.3817 9.3315 30.25 9 30.25ZM27.75 34C27.4185 34 27.1005 34.1317 26.8661 34.3661C26.6317 34.6005 26.5 34.9185 26.5 35.25C26.5 35.5815 26.6317 35.8995 26.8661 36.1339C27.1005 36.3683 27.4185 36.5 27.75 36.5C28.0815 36.5 28.3995 36.3683 28.6339 36.1339C28.8683 35.8995 29 35.5815 29 35.25C29 34.9185 28.8683 34.6005 28.6339 34.3661C28.3995 34.1317 28.0815 34 27.75 34ZM24 34C23.6685 34 23.3505 34.1317 23.1161 34.3661C22.8817 34.6005 22.75 34.9185 22.75 35.25C22.75 35.5815 22.8817 35.8995 23.1161 36.1339C23.3505 36.3683 23.6685 36.5 24 36.5C24.3315 36.5 24.6495 36.3683 24.8839 36.1339C25.1183 35.8995 25.25 35.5815 25.25 35.25C25.25 34.9185 25.1183 34.6005 24.8839 34.3661C24.6495 34.1317 24.3315 34 24 34ZM20.25 34C19.9185 34 19.6005 34.1317 19.3661 34.3661C19.1317 34.6005 19 34.9185 19 35.25C19 35.5815 19.1317 35.8995 19.3661 36.1339C19.6005 36.3683 19.9185 36.5 20.25 36.5C20.5815 36.5 20.8995 36.3683 21.1339 36.1339C21.3683 35.8995 21.5 35.5815 21.5 35.25C21.5 34.9185 21.3683 34.6005 21.1339 34.3661C20.8995 34.1317 20.5815 34 20.25 34ZM16.5 34C16.1685 34 15.8505 34.1317 15.6161 34.3661C15.3817 34.6005 15.25 34.9185 15.25 35.25C15.25 35.5815 15.3817 35.8995 15.6161 36.1339C15.8505 36.3683 16.1685 36.5 16.5 36.5C16.8315 36.5 17.1495 36.3683 17.3839 36.1339C17.6183 35.8995 17.75 35.5815 17.75 35.25C17.75 34.9185 17.6183 34.6005 17.3839 34.3661C17.1495 34.1317 16.8315 34 16.5 34ZM12.75 34C12.4185 34 12.1005 34.1317 11.8661 34.3661C11.6317 34.6005 11.5 34.9185 11.5 35.25C11.5 35.5815 11.6317 35.8995 11.8661 36.1339C12.1005 36.3683 12.4185 36.5 12.75 36.5C13.0815 36.5 13.3995 36.3683 13.6339 36.1339C13.8683 35.8995 14 35.5815 14 35.25C14 34.9185 13.8683 34.6005 13.6339 34.3661C13.3995 34.1317 13.0815 34 12.75 34ZM9 34C8.6685 34 8.3505 34.1317 8.11608 34.3661C7.88167 34.6005 7.75 34.9185 7.75 35.25C7.75 35.5815 7.88167 35.8995 8.11608 36.1339C8.3505 36.3683 8.6685 36.5 9 36.5C9.3315 36.5 9.6495 36.3683 9.88392 36.1339C10.1183 35.8995 10.25 35.5815 10.25 35.25C10.25 34.9185 10.1183 34.6005 9.88392 34.3661C9.6495 34.1317 9.3315 34 9 34ZM5.25 34C4.9185 34 4.60053 34.1317 4.36612 34.3661C4.1317 34.6005 4 34.9185 4 35.25C4 35.5815 4.1317 35.8995 4.36612 36.1339C4.60053 36.3683 4.9185 36.5 5.25 36.5C5.5815 36.5 5.8995 36.3683 6.13392 36.1339C6.36833 35.8995 6.5 35.5815 6.5 35.25C6.5 34.9185 6.36833 34.6005 6.13392 34.3661C5.8995 34.1317 5.5815 34 5.25 34Z" fill="#F7FDF8"/>
</svg>
